<svg xmlns="http://www.w3.org/2000/svg" xmlns:xlink="http://www.w3.org/1999/xlink" width="1080" zoomAndPan="magnify" viewBox="0 0 810 809.999993" height="1080" preserveAspectRatio="xMidYMid meet" version="1.0"><defs><g/><clipPath id="379772dfb4"><rect x="0" width="713" y="0" height="810"/></clipPath></defs><g transform="matrix(1, 0, 0, 1, 51, 0.000000000000039746)"><g clip-path="url(#379772dfb4)"><g fill="#0c0106" fill-opacity="1"><g transform="translate(0.913067, 788.179353)"><g><path d="M 213.582031 -783.5 C 202.683594 -717.753906 191.789062 -652.460938 180.890625 -587.625 C 169.996094 -522.785156 159.097656 -457.496094 148.199219 -391.75 C 159.097656 -326.367188 169.996094 -261.167969 180.890625 -196.148438 C 191.789062 -131.128906 202.683594 -65.746094 213.582031 0 L 145.476562 0 C 135.304688 -59.207031 125.316406 -118.050781 115.507812 -176.53125 C 105.703125 -235.011719 95.710938 -293.859375 85.542969 -353.066406 L 80.636719 -353.066406 L 80.636719 -0.542969 L 10.898438 -0.542969 L 10.898438 -783.5 L 80.636719 -783.5 L 80.636719 -430.980469 L 85.542969 -430.980469 C 95.710938 -489.824219 105.703125 -548.484375 115.507812 -606.964844 C 125.316406 -665.449219 135.304688 -724.292969 145.476562 -783.5 Z M 213.582031 -783.5 "/></g></g></g><g fill="#0c0106" fill-opacity="1"><g transform="translate(217.219841, 788.179353)"><g><path d="M 307.84375 -782.953125 L 307.84375 0 L 238.101562 0 L 238.101562 -714.300781 L 233.742188 -714.300781 L 233.742188 -639.65625 L 196.691406 0 L 122.046875 0 L 84.453125 -640.203125 L 84.453125 -714.300781 L 80.636719 -714.300781 L 80.636719 0 L 10.898438 0 L 10.898438 -782.953125 L 122.59375 -782.953125 L 157.460938 -191.242188 L 157.460938 -70.285156 L 161.277344 -70.285156 L 161.277344 -189.0625 L 196.148438 -782.953125 Z M 307.84375 -782.953125 "/></g></g></g><g fill="#0c0106" fill-opacity="1"><g transform="translate(535.959041, 788.179353)"><g><path d="M 142.207031 -764.429688 C 149.835938 -756.800781 155.464844 -748.265625 159.097656 -738.820312 C 163.457031 -729.015625 165.636719 -718.660156 165.636719 -707.765625 L 165.636719 -76.28125 C 165.636719 -65.382812 163.457031 -55.03125 159.097656 -45.222656 C 155.464844 -35.777344 149.835938 -27.242188 142.207031 -19.613281 C 138.574219 -15.617188 134.667969 -12.257812 130.492188 -9.535156 C 126.316406 -6.8125 121.683594 -4.359375 116.597656 -2.179688 C 106.429688 1.816406 96.074219 3.8125 85.542969 3.8125 C 75.007812 3.8125 64.65625 1.816406 54.484375 -2.179688 C 44.679688 -6.539062 36.140625 -12.351562 28.878906 -19.613281 C 21.25 -27.242188 15.617188 -35.777344 11.988281 -45.222656 C 7.628906 -55.03125 5.449219 -65.382812 5.449219 -76.28125 L 5.449219 -707.765625 C 5.449219 -718.660156 7.628906 -729.015625 11.988281 -738.820312 C 15.617188 -748.265625 21.25 -756.800781 28.878906 -764.429688 C 36.140625 -771.695312 44.679688 -777.503906 54.484375 -781.863281 C 64.65625 -785.859375 75.007812 -787.859375 85.542969 -787.859375 C 96.074219 -787.859375 106.429688 -785.859375 116.597656 -781.863281 C 121.683594 -779.683594 126.316406 -777.234375 130.492188 -774.507812 C 134.667969 -771.785156 138.574219 -768.425781 142.207031 -764.429688 Z M 95.894531 -707.765625 C 95.894531 -714.664062 92.445312 -718.117188 85.542969 -718.117188 C 78.640625 -718.117188 75.191406 -714.664062 75.191406 -707.765625 L 75.191406 -76.28125 C 75.191406 -69.378906 78.640625 -65.925781 85.542969 -65.925781 C 92.445312 -65.925781 95.894531 -69.378906 95.894531 -76.28125 Z M 95.894531 -707.765625 "/></g></g></g></g></g></svg>