<svg xmlns="http://www.w3.org/2000/svg" xmlns:xlink="http://www.w3.org/1999/xlink" width="1080" zoomAndPan="magnify" viewBox="0 0 810 809.999993" height="1080" preserveAspectRatio="xMidYMid meet" version="1.0"><defs><g/><clipPath id="da42d41866"><path d="M 405 0 C 181.324219 0 0 181.324219 0 405 C 0 628.675781 181.324219 810 405 810 C 628.675781 810 810 628.675781 810 405 C 810 181.324219 628.675781 0 405 0 Z M 405 0 " clip-rule="nonzero"/></clipPath><clipPath id="b3e06f941c"><path d="M 0 0 L 810 0 L 810 810 L 0 810 Z M 0 0 " clip-rule="nonzero"/></clipPath><clipPath id="aedc5c9c3d"><path d="M 405 0 C 181.324219 0 0 181.324219 0 405 C 0 628.675781 181.324219 810 405 810 C 628.675781 810 810 628.675781 810 405 C 810 181.324219 628.675781 0 405 0 Z M 405 0 " clip-rule="nonzero"/></clipPath><clipPath id="ff3e4079aa"><rect x="0" width="810" y="0" height="810"/></clipPath><clipPath id="2f018b99ed"><rect x="0" width="471" y="0" height="739"/></clipPath></defs><g clip-path="url(#da42d41866)"><g transform="matrix(1, 0, 0, 1, 0, 0.000000000000039746)"><g clip-path="url(#ff3e4079aa)"><g clip-path="url(#b3e06f941c)"><g clip-path="url(#aedc5c9c3d)"><rect x="-178.2" width="1166.4" fill="#ac1427" height="1166.39999" y="-178.199998" fill-opacity="1"/></g></g></g></g></g><g transform="matrix(1, 0, 0, 1, 171, 0.000000000000039746)"><g clip-path="url(#2f018b99ed)"><g fill="#ffffff" fill-opacity="1"><g transform="translate(0.917251, 668.888241)"><g><path d="M 140.992188 -517.210938 C 133.796875 -473.808594 126.605469 -430.707031 119.410156 -387.90625 C 112.21875 -345.105469 105.023438 -302.003906 97.832031 -258.605469 C 105.023438 -215.445312 112.21875 -172.402344 119.410156 -129.480469 C 126.605469 -86.5625 133.796875 -43.402344 140.992188 0 L 96.03125 0 C 89.320312 -39.085938 82.726562 -77.929688 76.25 -116.535156 C 69.777344 -155.140625 63.183594 -193.984375 56.46875 -233.066406 L 53.230469 -233.066406 L 53.230469 -0.359375 L 7.195312 -0.359375 L 7.195312 -517.210938 L 53.230469 -517.210938 L 53.230469 -284.5 L 56.46875 -284.5 C 63.183594 -323.347656 69.777344 -362.070312 76.25 -400.675781 C 82.726562 -439.28125 89.320312 -478.125 96.03125 -517.210938 Z M 140.992188 -517.210938 "/></g></g></g><g fill="#ffffff" fill-opacity="1"><g transform="translate(143.707529, 668.888241)"><g><path d="M 203.214844 -516.851562 L 203.214844 0 L 157.175781 0 L 157.175781 -471.53125 L 154.300781 -471.53125 L 154.300781 -422.257812 L 129.84375 0 L 80.566406 0 L 55.75 -422.617188 L 55.75 -471.53125 L 53.230469 -471.53125 L 53.230469 0 L 7.195312 0 L 7.195312 -516.851562 L 80.925781 -516.851562 L 103.945312 -126.246094 L 103.945312 -46.398438 L 106.464844 -46.398438 L 106.464844 -124.804688 L 129.480469 -516.851562 Z M 203.214844 -516.851562 "/></g></g></g><g fill="#ffffff" fill-opacity="1"><g transform="translate(354.116377, 668.888241)"><g><path d="M 93.875 -504.621094 C 98.910156 -499.585938 102.625 -493.953125 105.023438 -487.71875 C 107.902344 -481.242188 109.339844 -474.410156 109.339844 -467.214844 L 109.339844 -50.355469 C 109.339844 -43.160156 107.902344 -36.328125 105.023438 -29.851562 C 102.625 -23.617188 98.910156 -17.984375 93.875 -12.949219 C 91.476562 -10.3125 88.898438 -8.09375 86.140625 -6.292969 C 83.382812 -4.496094 80.328125 -2.878906 76.96875 -1.4375 C 70.257812 1.199219 63.421875 2.519531 56.46875 2.519531 C 49.515625 2.519531 42.679688 1.199219 35.96875 -1.4375 C 29.492188 -4.316406 23.859375 -8.152344 19.0625 -12.949219 C 14.027344 -17.984375 10.3125 -23.617188 7.914062 -29.851562 C 5.035156 -36.328125 3.597656 -43.160156 3.597656 -50.355469 L 3.597656 -467.214844 C 3.597656 -474.410156 5.035156 -481.242188 7.914062 -487.71875 C 10.3125 -493.953125 14.027344 -499.585938 19.0625 -504.621094 C 23.859375 -509.417969 29.492188 -513.253906 35.96875 -516.132812 C 42.679688 -518.769531 49.515625 -520.085938 56.46875 -520.085938 C 63.421875 -520.085938 70.257812 -518.769531 76.96875 -516.132812 C 80.328125 -514.691406 83.382812 -513.074219 86.140625 -511.277344 C 88.898438 -509.476562 91.476562 -507.257812 93.875 -504.621094 Z M 63.300781 -467.214844 C 63.300781 -471.769531 61.023438 -474.050781 56.46875 -474.050781 C 51.914062 -474.050781 49.636719 -471.769531 49.636719 -467.214844 L 49.636719 -50.355469 C 49.636719 -45.796875 51.914062 -43.519531 56.46875 -43.519531 C 61.023438 -43.519531 63.300781 -45.796875 63.300781 -50.355469 Z M 63.300781 -467.214844 "/></g></g></g></g></g></svg>