<?xml version="1.0" encoding="UTF-8" standalone="no"?>
<!-- Created with Inkscape (http://www.inkscape.org/) -->

<svg
   width="75mm"
   height="72mm"
   viewBox="0 0 75 72"
   version="1.1"
   id="svg1"
   xml:space="preserve"
   inkscape:version="1.4 (86a8ad7, 2024-10-11)"
   sodipodi:docname="camara.svg"
   xmlns:inkscape="http://www.inkscape.org/namespaces/inkscape"
   xmlns:sodipodi="http://sodipodi.sourceforge.net/DTD/sodipodi-0.dtd"
   xmlns="http://www.w3.org/2000/svg"
   xmlns:svg="http://www.w3.org/2000/svg"><sodipodi:namedview
     id="namedview1"
     pagecolor="#ffffff"
     bordercolor="#000000"
     borderopacity="0.25"
     inkscape:showpageshadow="2"
     inkscape:pageopacity="0.0"
     inkscape:pagecheckerboard="0"
     inkscape:deskcolor="#d1d1d1"
     inkscape:document-units="mm"
     inkscape:zoom="1.9275802"
     inkscape:cx="107.38853"
     inkscape:cy="150.70709"
     inkscape:window-width="1920"
     inkscape:window-height="1009"
     inkscape:window-x="-8"
     inkscape:window-y="-8"
     inkscape:window-maximized="1"
     inkscape:current-layer="g6" /><defs
     id="defs1"><g
       id="g1" /><clipPath
       id="ef87fc712d"><path
         d="M 0.886719,0 H 1199.1133 V 674 H 0.886719 Z m 0,0"
         clip-rule="nonzero"
         id="path1-8" /></clipPath><clipPath
       id="18b4cb64c8"><path
         d="m 278.73828,273.32422 h 115.91406 v 105.8164 H 278.73828 Z m 0,0"
         clip-rule="nonzero"
         id="path2-8" /></clipPath><clipPath
       id="21e6d15f27"><path
         d="M 252.52734,239.84766 H 389 V 376 H 252.52734 Z m 0,0"
         clip-rule="nonzero"
         id="path3-2" /></clipPath><clipPath
       id="1e7e377b1f"><rect
         x="0"
         width="149"
         y="0"
         height="71"
         id="rect3-4" /></clipPath><clipPath
       id="5b316fbd7f"><path
         d="m 526.5,272.76562 h 147 v 88.44141 h -147 z m 0,0"
         clip-rule="nonzero"
         id="path4" /></clipPath><clipPath
       id="9cbf4c9d92"><path
         d="m 565,257.85937 h 71 V 276 h -71 z m 0,0"
         clip-rule="nonzero"
         id="path5" /></clipPath><clipPath
       id="ecbe230171"><path
         d="m 526.5,288.01172 h 147 v 57.25 h -147 z m 0,0"
         clip-rule="nonzero"
         id="path6" /></clipPath><clipPath
       id="a4ed547ce6"><rect
         x="0"
         width="204"
         y="0"
         height="71"
         id="rect6-5" /></clipPath><clipPath
       id="292461c61b"><path
         d="m 833,360 h 87 v 18.84766 h -87 z m 0,0"
         clip-rule="nonzero"
         id="path7-5" /></clipPath><clipPath
       id="6a2185c9d5"><path
         d="M 821.36719,240.30469 H 931.45312 V 355 H 821.36719 Z m 0,0"
         clip-rule="nonzero"
         id="path8-1" /></clipPath><clipPath
       id="f51ef1861f"><rect
         x="0"
         width="159"
         y="0"
         height="71"
         id="rect8-7" /></clipPath></defs><g
     inkscape:label="Capa 1"
     inkscape:groupmode="layer"
     id="layer1"><g
       id="g5"
       transform="translate(-10.094118,-30.670589)"><g
         id="g6"
         transform="matrix(1.111861,0,0,1.111861,-2.3706689,-7.2777547)"><g
           id="g8"
           style="fill:#ffffff"><g
             clip-path="url(#5b316fbd7f)"
             id="g78"
             transform="matrix(0.45205111,0,0,0.45205111,-226.29269,-73.416208)"
             style="fill:#ffffff"><path
               fill="#ffffff"
               d="m 534.01172,275.37891 c -2.72266,0 -4.9336,2.21484 -4.9336,4.93359 v 73.46094 c 0,2.71875 2.21094,4.93359 4.9336,4.93359 h 131.97265 c 2.72657,0 4.9375,-2.21484 4.9375,-4.93359 V 280.3125 c 0,-2.71875 -2.21093,-4.93359 -4.9375,-4.93359 z m 131.97265,85.91015 H 534.01172 c -4.14453,0 -7.51172,-3.375 -7.51172,-7.51562 V 280.3125 c 0,-4.14063 3.36719,-7.51172 7.51172,-7.51172 h 131.97265 c 4.14454,0 7.51563,3.37109 7.51563,7.51172 v 73.46094 c 0,4.14062 -3.37109,7.51562 -7.51563,7.51562"
               fill-opacity="1"
               fill-rule="nonzero"
               id="path77"
               style="fill:#ffffff" /></g><g
             clip-path="url(#9cbf4c9d92)"
             id="g79"
             transform="matrix(0.45205111,0,0,0.45205111,-226.29269,-73.416208)"
             style="fill:#ffffff"><path
               fill="#ffffff"
               d="m 569.79297,272.80078 h 61.40625 l -10.625,-12.36328 h -41.00781 z m 64.21484,2.57813 h -66.8789 c -0.49219,0 -0.94532,-0.28516 -1.16016,-0.72657 -0.21484,-0.44531 -0.15625,-0.97265 0.14844,-1.36328 l 11.8125,-14.9375 c 0.24609,-0.3125 0.61718,-0.49219 1.01172,-0.49219 h 42.22265 c 0.37891,0 0.73438,0.16407 0.97656,0.44922 l 12.84375,14.9375 c 0.32813,0.38672 0.40625,0.92188 0.19141,1.37891 -0.21094,0.46094 -0.66797,0.75391 -1.16797,0.75391"
               fill-opacity="1"
               fill-rule="nonzero"
               id="path78"
               style="fill:#ffffff" /></g><path
             fill="#ffffff"
             d="m 17.94911,49.90369 h 9.24763 v -1.38795 c 0,-0.7646 -0.62157,-1.38616 -1.38618,-1.38616 h -6.47351 c -0.7646,0 -1.38794,0.62156 -1.38794,1.38616 z m 9.83212,1.16544 H 17.36639 c -0.32138,0 -0.58272,-0.26134 -0.58272,-0.58272 v -1.97067 c 0,-1.40736 1.14779,-2.55161 2.55338,-2.55161 h 6.47351 c 1.40736,0 2.55162,1.14425 2.55162,2.55161 v 1.97067 c 0,0.32138 -0.25958,0.58272 -0.58095,0.58272"
             fill-opacity="1"
             fill-rule="nonzero"
             id="path79"
             style="fill:#ffffff;stroke-width:0.452051" /><path
             fill="#ffffff"
             d="m 44.93798,54.16286 c -8.67903,0 -15.73879,7.06329 -15.73879,15.74055 0,8.67727 7.05976,15.74056 15.73879,15.74056 8.67902,0 15.74055,-7.06329 15.74055,-15.74056 0,-8.67726 -7.06153,-15.74055 -15.74055,-15.74055 z m 0,32.64657 c -9.32179,0 -16.90423,-7.58423 -16.90423,-16.90602 0,-9.32178 7.58244,-16.90599 16.90423,-16.90599 9.32178,0 16.90601,7.58421 16.90601,16.90599 0,9.32179 -7.58423,16.90602 -16.90601,16.90602"
             fill-opacity="1"
             fill-rule="nonzero"
             id="path80"
             style="fill:#ffffff;stroke-width:0.452051" /><path
             fill="#ffffff"
             d="m 44.93798,57.82341 c -6.66069,0 -12.08001,5.41931 -12.08001,12.08 0,6.6607 5.41932,12.08001 12.08001,12.08001 6.66069,0 12.08177,-5.41931 12.08177,-12.08001 0,-6.66069 -5.42108,-12.08 -12.08177,-12.08 z m 0,25.32545 c -7.30345,0 -13.24545,-5.94199 -13.24545,-13.24545 0,-7.30521 5.942,-13.24544 13.24545,-13.24544 7.30345,0 13.24721,5.94023 13.24721,13.24544 0,7.30346 -5.94376,13.24545 -13.24721,13.24545"
             fill-opacity="1"
             fill-rule="nonzero"
             id="path81"
             style="fill:#ffffff;stroke-width:0.452051" /></g></g></g></g></svg>
