<?xml version="1.0" encoding="UTF-8" standalone="no"?>
<!-- Generator: Adobe Illustrator 20.1.0, SVG Export Plug-In . SVG Version: 6.00 Build 0)  -->

<svg
   version="1.1"
   id="logos"
   x="0px"
   y="0px"
   viewBox="0 0 125 40"
   enable-background="new 0 0 125 40"
   xml:space="preserve"
   sodipodi:docname="logo_lacasadeldisco_onlight.svg"
   inkscape:version="1.4 (86a8ad7, 2024-10-11)"
   xmlns:inkscape="http://www.inkscape.org/namespaces/inkscape"
   xmlns:sodipodi="http://sodipodi.sourceforge.net/DTD/sodipodi-0.dtd"
   xmlns="http://www.w3.org/2000/svg"
   xmlns:svg="http://www.w3.org/2000/svg"><defs
   id="defs15">
	
	

		
		
		
		
		
		
		
		
		
		
		
		
		
		
		
		
		
		
		
		
	</defs><sodipodi:namedview
   id="namedview15"
   pagecolor="#ffffff"
   bordercolor="#000000"
   borderopacity="0.25"
   inkscape:showpageshadow="2"
   inkscape:pageopacity="0.0"
   inkscape:pagecheckerboard="0"
   inkscape:deskcolor="#d1d1d1"
   inkscape:zoom="1.3039049"
   inkscape:cx="31.444011"
   inkscape:cy="-5.7519532"
   inkscape:window-width="1920"
   inkscape:window-height="1009"
   inkscape:window-x="-8"
   inkscape:window-y="-8"
   inkscape:window-maximized="1"
   inkscape:current-layer="logos" />
<g
   id="g15"
   style="fill:#ffffff"
   transform="matrix(1.126087,0,0,1.126087,0.65473892,-4.0555057)"><path
     id="path1"
     d="M 15.716797,4.5390625 C 7.0377968,4.5390625 0,11.577813 0,20.257812 c 0,7.848 5.7524848,14.351391 13.271484,15.525391 v -8.8125 h 5.044922 v 8.785156 c 7.442,-1.24 13.117188,-7.706 13.117188,-15.5 0,-8.679 -7.036797,-15.7167965 -15.716797,-15.7167965 z m 5.556641,2.8867187 c 1.272999,0.5380001 2.450953,1.2570001 3.501953,2.125 l -5.779297,6.7089848 c -0.339,-0.27 -0.711328,-0.498735 -1.111328,-0.677735 z m 6.359374,5.3124998 c 1.402001,2.142 2.240688,4.687828 2.304688,7.423828 l -8.982422,0.154297 c 0,-0.943 -0.251406,-1.827843 -0.691406,-2.589844 z m -11.916015,3.523438 c 2.164,0 3.917969,1.753969 3.917969,3.917969 0.001,2.164 -1.752969,3.919921 -3.917969,3.919921 -2.165,0 -3.919922,-1.755922 -3.919922,-3.919921 0,-2.165 1.755922,-3.917969 3.919922,-3.917969 z"
     style="fill:#ffffff" /><polygon
     points="17.346,38.185 17.346,29.92 13.796,27.65 13.796,35.783 "
     id="polygon3"
     style="fill:#ffffff" /><path
     d="m 48.469,17.773 h 1.087 l -5.2,-10.633 -5.084,9.896 h -3.648 v -9.43 h -1.087 v 10.167 h 5.355 c 0,0 0.784,-1.622 1.691,-3.493 h 5.264 c 0.867,1.871 1.622,3.493 1.622,3.493 z m -6.565,-4.152 c 1.169,-2.406 2.412,-4.951 2.412,-4.89 0,0.061 1.141,2.542 2.226,4.89 z"
     id="path4"
     style="fill:#ffffff" /><path
     d="m 56.812,13.709 c -0.405,0.643 -1.165,1.076 -2.037,1.076 -1.297,0 -2.348,-0.956 -2.348,-2.134 0,-1.179 1.051,-2.134 2.348,-2.134 0.873,0 1.633,0.434 2.037,1.076 V 7.846 C 56.06,7.47 55.21,7.257 54.309,7.257 c -3.054,0 -5.53,2.432 -5.53,5.433 0,3.001 2.476,5.433 5.53,5.433 0.901,0 1.751,-0.213 2.503,-0.589 z"
     id="path5"
     style="fill:#ffffff" /><path
     d="m 71.539,28.145 c -0.405,0.643 -1.165,1.076 -2.037,1.076 -1.297,0 -2.348,-0.956 -2.348,-2.134 0,-1.179 1.051,-2.134 2.348,-2.134 0.873,0 1.633,0.434 2.037,1.076 v -3.747 c -0.752,-0.376 -1.602,-0.589 -2.503,-0.589 -3.054,0 -5.53,2.432 -5.53,5.433 0,3.001 2.476,5.433 5.53,5.433 0.901,0 1.751,-0.213 2.503,-0.589 z"
     id="path6"
     style="fill:#ffffff" /><path
     d="m 64.651,17.773 h 3.687 L 64.884,7.606 H 60.809 L 57.2,17.773 h 3.842 l 0.365,-1.515 h 2.856 z m -2.766,-3.502 0.904,-3.755 0.964,3.755 z"
     id="path7"
     style="fill:#ffffff" /><path
     d="m 84.209,17.773 h 3.687 L 84.442,7.606 H 80.367 L 76.758,17.773 H 80.6 l 0.365,-1.515 h 2.856 z m -2.766,-3.502 0.904,-3.755 0.964,3.755 z"
     id="path8"
     style="fill:#ffffff" /><path
     d="m 75.284,10.827 1.164,-2.522 c 0,0 -1.358,-1.048 -3.454,-1.048 -2.096,0 -4.23,1.358 -4.23,3.57 0,3.444 4.152,2.639 4.152,3.803 0,0.31 -0.272,0.621 -1.125,0.621 -0.853,0 -2.445,-0.98 -2.445,-0.98 l -1.009,2.648 c 0,0 1.669,1.048 4.055,1.048 2.386,0 4.21,-1.377 4.21,-3.696 0,-3.328 -4.133,-2.396 -4.133,-3.755 0.001,-0.698 1.689,-0.62 2.815,0.311 z"
     id="path9"
     style="fill:#ffffff" /><path
     d="m 60.014,25.341 1.164,-2.522 c 0,0 -1.358,-1.048 -3.454,-1.048 -2.096,0 -4.23,1.358 -4.23,3.57 0,3.444 4.152,2.639 4.152,3.803 0,0.31 -0.272,0.621 -1.125,0.621 -0.854,0 -2.445,-0.98 -2.445,-0.98 l -1.009,2.648 c 0,0 1.669,1.048 4.055,1.048 2.386,0 4.21,-1.377 4.21,-3.696 0,-3.328 -4.133,-2.396 -4.133,-3.755 0.001,-0.698 1.689,-0.621 2.815,0.311 z"
     id="path10"
     style="fill:#ffffff" /><path
     d="m 108.308,25.341 1.164,-2.522 c 0,0 -1.358,-1.048 -3.454,-1.048 -2.096,0 -4.23,1.358 -4.23,3.57 0,3.444 4.152,2.639 4.152,3.803 0,0.31 -0.272,0.621 -1.125,0.621 -0.854,0 -2.445,-0.98 -2.445,-0.98 l -1.009,2.648 c 0,0 1.669,1.048 4.055,1.048 2.387,0 4.21,-1.377 4.21,-3.696 0,-3.328 -4.133,-2.396 -4.133,-3.755 0.001,-0.698 1.69,-0.621 2.815,0.311 z"
     id="path11"
     style="fill:#ffffff" /><path
     d="m 92.281,7.606 c -2.212,0 -3.958,0 -3.958,0 v 10.167 h 3.648 c 3.182,0 5.316,-2.018 5.316,-5.084 0,-3.066 -1.902,-5.083 -5.006,-5.083 z m 0.116,9.469 c -1.087,0 -3.066,0 -3.066,0 V 8.266 c 0,0 1.669,0 3.143,0 1.475,0 3.881,1.116 3.881,4.346 0,3.23 -2.289,4.463 -3.958,4.463 z"
     id="path12"
     style="fill:#ffffff" /><polygon
     points="98.451,12.316 98.451,8.227 103.418,8.227 103.418,7.529 97.52,7.529 97.52,17.773 103.418,17.773 103.418,17.075 98.451,17.075 98.451,13.078 103.418,13.078 103.418,12.316 "
     id="polygon12"
     style="fill:#ffffff" /><polygon
     points="104.777,7.529 104.777,17.773 105.271,17.773 105.766,17.773 109.841,17.773 109.841,17.075 105.766,17.075 105.766,7.529 "
     id="polygon13"
     style="fill:#ffffff" /><rect
     x="46.542999"
     y="22.003"
     width="3.8080001"
     height="10.187"
     id="rect13"
     style="fill:#ffffff" /><path
     d="m 37.72,22.003 c -1.669,0 -3.454,0 -3.454,0 V 32.19 c 0,0 3.493,0 4.113,0 3.027,0 5.627,-1.804 5.627,-4.87 0,-3.066 -1.785,-5.317 -6.286,-5.317 z m 0.582,7.257 h -0.543 v -4.191 c 0,0 0.466,0 0.893,0 1.242,0 1.902,1.009 1.902,2.057 -0.002,1.629 -1.282,2.134 -2.252,2.134 z"
     id="path13"
     style="fill:#ffffff" /><path
     d="m 79.232,21.809 c -3.092,0 -5.598,2.406 -5.598,5.375 0,2.968 2.506,5.375 5.598,5.375 3.092,0 5.598,-2.406 5.598,-5.375 0,-2.968 -2.506,-5.375 -5.598,-5.375 z m 0.01,7.49 c -1.072,0 -1.94,-0.947 -1.94,-2.115 0,-1.168 0.869,-2.115 1.94,-2.115 1.072,0 1.94,0.947 1.94,2.115 0,1.168 -0.868,2.115 -1.94,2.115 z"
     id="path14"
     style="fill:#ffffff" /><polygon
     points="96.055,25.923 96.055,24.758 99.577,24.758 99.577,22.003 92.456,22.003 92.456,32.287 99.577,32.287 99.577,29.687 96.055,29.687 96.055,28.445 99.15,28.445 99.15,25.923 "
     id="polygon14"
     style="fill:#ffffff" /><ellipse
     fill="#cc0000"
     cx="88.245003"
     cy="30.482"
     rx="2.5220001"
     ry="2.076"
     id="ellipse14"
     style="fill:#ffffff" /></g>
</svg>
