<?xml version="1.0" encoding="UTF-8" standalone="no"?>
<!-- Generator: Adobe Illustrator 20.1.0, SVG Export Plug-In . SVG Version: 6.00 Build 0)  -->

<svg
   version="1.1"
   id="logos"
   x="0px"
   y="0px"
   viewBox="0 0 125 40"
   enable-background="new 0 0 125 40"
   xml:space="preserve"
   sodipodi:docname="d2fy.svg"
   inkscape:version="1.4 (86a8ad7, 2024-10-11)"
   xmlns:inkscape="http://www.inkscape.org/namespaces/inkscape"
   xmlns:sodipodi="http://sodipodi.sourceforge.net/DTD/sodipodi-0.dtd"
   xmlns="http://www.w3.org/2000/svg"
   xmlns:svg="http://www.w3.org/2000/svg"><defs
   id="defs15">
	
	

		
		
		
		
		
		
		
		
		
		
		
		
		
		
		
		
		
		
		
		
	
	
	
	
	
	

		
		
		
		
		
		
		
	</defs><sodipodi:namedview
   id="namedview15"
   pagecolor="#ffffff"
   bordercolor="#000000"
   borderopacity="0.25"
   inkscape:showpageshadow="2"
   inkscape:pageopacity="0.0"
   inkscape:pagecheckerboard="0"
   inkscape:deskcolor="#d1d1d1"
   inkscape:zoom="0.922"
   inkscape:cx="108.45987"
   inkscape:cy="133.94794"
   inkscape:window-width="1920"
   inkscape:window-height="1009"
   inkscape:window-x="-8"
   inkscape:window-y="-8"
   inkscape:window-maximized="1"
   inkscape:current-layer="logos"
   showguides="false" />

<style
   type="text/css"
   id="style1">
	.st0{fill:#FF334B;}
	.st1{fill:none;}
	.st2{fill:#1A171B;}
</style><g
   id="g2"
   transform="translate(-22.540914)"
   style="fill:#ffffff"><g
     id="g1"
     transform="matrix(1.8150522,0,0,1.8150522,22.540914,-2.9231983)"
     style="fill:#ffffff">
		<polygon
   class="st0"
   points="22.448,18.592 22.448,9.705 22.443,9.705 22.443,15.805 22.448,18.588 "
   id="polygon1"
   style="fill:#ffffff" />
		<path
   class="st0"
   d="M 22.448,6.034 C 22.163,5.306 21.691,4.666 21.043,4.143 19.986,3.29 18.533,2.82 16.949,2.82 c -2.129,0 -3.436,0.683 -4.055,1.121 v 4.068 c 0.718,-0.95 2.153,-2.127 3.794,-2.127 1.892,0 2.563,1.122 2.563,2.082 0,1.738 -1.52,2.913 -2.526,3.691 -0.088,0.068 -0.172,0.133 -0.248,0.194 -1.339,1.039 -2.864,2.249 -3.583,2.821 v 4.192 h 9.554 v -0.274 c -0.003,-0.015 -0.005,-0.029 -0.005,-0.045 v -2.738 h -6.265 c 0.661,-0.503 2.216,-1.686 3.345,-2.546 1.11,-0.845 2.339,-1.967 2.915,-3.554 L 22.432,6.997 h 0.016 V 6.034 Z"
   id="path1-0"
   style="fill:#ffffff" />
	</g><g
     id="g3"
     transform="matrix(1.8150522,0,0,1.8150522,22.540914,-2.9231983)"
     style="fill:#ffffff">
		<ellipse
   class="st0"
   cx="35.487999"
   cy="18.537001"
   rx="0.60299999"
   ry="0.59799999"
   id="ellipse1"
   style="fill:#ffffff" />
		<path
   class="st0"
   d="m 40.393,17.245 c 0,-1.043 -0.797,-1.89 -1.781,-1.89 -0.984,0 -1.781,0.846 -1.781,1.89 0,1.043 0.797,1.89 1.781,1.89 0.699,0 1.222,-0.183 1.518,-0.568 l -0.589,-0.568 c 0,0 -0.314,0.329 -0.852,0.329 -0.444,0 -0.817,-0.336 -0.926,-0.792 h 2.633 c -10e-4,-0.107 -0.003,-0.209 -0.003,-0.291 z m -2.615,-0.324 c 0.127,-0.424 0.486,-0.73 0.91,-0.73 0.424,0 0.783,0.306 0.91,0.73 z"
   id="path2"
   style="fill:#ffffff" />
		<path
   class="st0"
   d="m 44.027,17.938 c -0.06,-0.722 -0.826,-0.955 -1.238,-1.044 -0.413,-0.089 -0.736,-0.214 -0.762,-0.427 -0.027,-0.214 0.233,-0.326 0.547,-0.32 0.499,0.009 0.732,0.178 0.933,0.285 l 0.377,-0.569 c 0,0 -0.565,-0.463 -1.4,-0.463 -0.835,0 -1.355,0.498 -1.355,1.157 0,1.121 1.993,0.874 2.037,1.486 0.013,0.17 -0.161,0.356 -0.66,0.356 -0.498,0 -1.126,-0.401 -1.126,-0.401 l -0.386,0.579 c 0,0 0.592,0.516 1.606,0.516 1.014,0 1.478,-0.539 1.427,-1.155 z"
   id="path3"
   style="fill:#ffffff" />
	</g><path
     class="st1"
     d="m 45.944197,30.822252 h 17.341009 c -0.0054,-0.02904 -0.0091,-0.05808 -0.0091,-0.08894 v -4.481364"
     id="path4-9"
     style="fill:#ffffff;stroke-width:1.81505" /><path
     class="st1"
     d="m 60.974644,10.203259 v 4.062087 c 0,0.235957 0.192396,0.426537 0.430168,0.426537 v 0 c -0.237772,0 -0.430168,-0.19058 -0.430168,-0.426537 v -4.062087 c 0,-0.2359566 0.192396,-0.4265371 0.430168,-0.4265371 v 0 c -0.237772,0 -0.430168,0.1905805 -0.430168,0.4265371 z"
     id="path5-4"
     style="fill:#ffffff;stroke-width:1.81505" /><path
     d="m 85.456068,9.7767219 v 0 L 79.969166,25.126618 74.191854,9.7767219 H 69.058887 V 8.3119748 c 0,-1.2941322 0.842184,-2.2706303 2.234329,-2.2706303 1.187044,0 1.862244,0.6788295 1.862244,0.6788295 l 1.348583,-3.2507585 c 0.08349,-0.2014707 0.01815,-0.4319824 -0.157909,-0.559036 -0.70061,-0.5100297 -2.564669,-1.6970738 -4.717321,-1.6970738 -2.642716,0 -6.09676,1.6045061 -6.338162,6.8282263 -0.0018,-0.00363 -0.0036,-0.00726 -0.0054,-0.01089 v 1.74971 h -0.02904 -1.851353 c -0.237772,0 -0.430168,0.1905805 -0.430168,0.426537 v 4.058457 c 0,0.235957 0.192396,0.426537 0.430168,0.426537 h 1.334063 0.52818 0.0091 0.0091 v 16.130369 0.488249 h 1.085401 v -0.03267 h 4.136504 c 0.304929,0 0.549961,-0.245032 0.549961,-0.54633 V 14.691883 h 0.702425 c 0.19058,0 0.361195,0.114349 0.435613,0.288594 l 6.835486,16.555091 c 0,0 -0.328524,0.814958 -0.695165,1.484712 -0.36664,0.67157 -1.023689,1.399406 -2.666312,1.399406 -1.081771,0 -2.194398,-0.491879 -2.691722,-0.740542 -0.139759,-0.06897 -0.308559,0.0054 -0.350305,0.152465 l -1.014614,3.50305 c -0.03449,0.119794 0.02541,0.246848 0.141574,0.295854 0.680644,0.283148 3.016617,1.156188 6.136691,1.156188 3.729933,0 5.690189,-3.544797 6.617681,-5.960631 C 83.435915,30.410235 91.60002,9.7730918 91.60002,9.7730918 h -6.143952 z"
     id="path8-2"
     style="fill:#ffffff;stroke-width:1.81505" /><path
     d="M 45.944197,24.327995 V 23.701802 11.61174 10.831267 4.8470402 4.2281074 2.4892874 c 0,-0.1978407 -0.16154,-0.3575653 -0.361195,-0.3575653 h -5.345329 c -0.199656,0 -0.361195,0.1615396 -0.361195,0.3575653 V 12.987549 C 38.05598,10.691508 35.420524,9.2467267 32.485585,9.2467267 c -5.492348,0 -9.944671,5.0567353 -9.944671,11.2950703 0,6.238334 4.452323,11.295069 9.944671,11.295069 2.934939,0 5.57221,-1.444781 7.390893,-3.740822 v 2.856892 c 0,0.197841 0.161539,0.357565 0.361195,0.357565 h 4.858895 0.847629 V 30.822252 Z M 34.23348,26.812802 c -3.190861,0 -5.777311,-2.813331 -5.777311,-6.285526 0,-3.472195 2.58645,-6.285526 5.777311,-6.285526 3.190862,0 5.777311,2.813331 5.777311,6.285526 0,3.472195 -2.586449,6.285526 -5.777311,6.285526 z"
     id="path9-4"
     style="fill:#ffffff;stroke-width:1.81505" /></g></svg>
