<?xml version="1.0" encoding="UTF-8" standalone="no"?>
<!-- Created with Inkscape (http://www.inkscape.org/) -->

<svg
   version="1.0"
   width="1039.6991"
   height="585.83124"
   id="svg2"
   xml:space="preserve"
   sodipodi:docname="elcorteingles.svg"
   inkscape:version="1.4 (86a8ad7, 2024-10-11)"
   xmlns:inkscape="http://www.inkscape.org/namespaces/inkscape"
   xmlns:sodipodi="http://sodipodi.sourceforge.net/DTD/sodipodi-0.dtd"
   xmlns="http://www.w3.org/2000/svg"
   xmlns:svg="http://www.w3.org/2000/svg"><sodipodi:namedview
     id="namedview1"
     pagecolor="#ffffff"
     bordercolor="#000000"
     borderopacity="0.25"
     inkscape:showpageshadow="2"
     inkscape:pageopacity="0.0"
     inkscape:pagecheckerboard="0"
     inkscape:deskcolor="#d1d1d1"
     inkscape:zoom="0.33584757"
     inkscape:cx="-74.438532"
     inkscape:cy="-96.770091"
     inkscape:window-width="1920"
     inkscape:window-height="1009"
     inkscape:window-x="-8"
     inkscape:window-y="-8"
     inkscape:window-maximized="1"
     inkscape:current-layer="svg2" /><defs
     id="defs5" /><path
     id="path143"
     style="fill:#ffffff;fill-opacity:1;fill-rule:nonzero;stroke:none;stroke-width:1.09796"
     d="M 3.2229184,0.6952239 V 585.13601 L 1040.4612,295.91247 Z M 449.43274,199.10361 l 4.41327,66.91744 c 9.14637,-0.95063 24.09301,1.47122 31.13306,18.02836 8.20933,-10.83169 38.63728,-17.27281 41.28273,23.32298 l -0.37314,23.01848 -20.43871,-0.33882 0.37527,-23.3573 c 0.0216,-12.78592 -14.59496,-13.0263 -14.97251,-0.61117 l -0.47607,28.85781 -19.35148,-0.30666 -1.29096,-34.35831 c -1.29286,-10.61441 -17.62903,-17.10692 -13.85096,-2.06938 0.63149,6.22658 10.07619,80.01483 -22.47594,82.6019 -29.93111,-1.94063 -26.35387,-77.91009 2.03721,-105.58821 l -4.8207,-75.87908 z M 67.72141,218.4551 c 6.57278,-0.10607 13.096841,1.10807 18.911868,3.73562 l -0.340966,23.01849 c -24.482671,-11.5365 -44.123825,5.31806 -38.057479,25.87058 32.894346,-23.77106 54.408177,36.51685 7.331859,33.20459 5.500049,10.14049 20.685591,8.90772 34.154587,0.71197 -13.048007,-87.34346 67.824891,-83.85308 27.534681,2.64839 -3.90843,4.86718 9.20203,6.35588 16.97543,-0.10295 l -0.27234,17.52011 c -13.66457,8.91414 -28.01036,4.11368 -33.57559,-2.00291 C 68.083936,344.09766 25.570332,330.29605 33.328791,290.60065 9.871524,244.50815 39.23937,218.9147 67.72141,218.45508 Z m 132.06997,6.82577 c 4.48683,-0.003 9.23575,0.37079 14.29273,1.15371 l -0.33882,20.43871 c -77.13779,-19.86127 -57.86723,101.36933 1.28882,57.00365 -4.05375,-20.52264 21.99792,-27.58174 22.67965,-13.13902 -0.47938,6.93821 -0.1141,18.23916 8.284,18.74032 8.02735,0.67494 13.48638,-8.71364 4.55051,-9.94808 -34.70326,-11.508 4.47938,-63.52205 24.98708,-20.81185 8.76883,0.13717 16.59486,3.00078 21.59243,10.38983 0.60297,-3.64768 8.13471,-7.91147 13.9539,-6.3497 l -0.27234,18.26639 c -5.84906,0.26889 -10.46783,2.93648 -10.38769,9.33692 l -0.27236,18.26425 -16.09192,-0.27021 0.30452,-17.52012 c 0.0801,-4.93239 -3.35109,-8.28875 -10.66005,-8.21537 -0.23222,14.78357 -23.02378,34.34314 -47.25929,18.97835 -92.49366,57.38106 -117.88321,-96.24977 -26.65117,-96.31778 z m 532.48516,15.95682 9.9481,17.14484 -39.6551,24.57963 -12.18902,-15.54937 z m -406.49469,2.47684 17.72385,0.10295 -3.97366,42.30134 5.50051,0.10295 c 28.2811,-55.44453 81.85164,-1.98943 22.64534,22.64534 7.68513,10.7149 19.42897,6.33179 28.8578,-0.27233 l -0.3045,20.47301 c -11.87058,11.49985 -42.01215,10.45012 -50.72258,-16.36427 -2.7962,-7.715 -7.58009,-6.12942 -7.43479,-3.56406 l -0.34097,22.10066 -17.72169,-0.30451 0.47606,-29.19878 -4.21169,-0.2702 0.30666,-17.89325 6.00874,0.10295 z m 298.93787,6.62205 c 1.0889,-0.0629 2.20151,0.0148 3.29387,0.20371 28.60159,5.20129 21.07187,41.60472 3.36035,64.33553 2.84781,4.43263 9.92769,7.30079 18.02836,3.76992 -17.92336,-56.36664 60.20906,-53.11511 40.67369,-7.57203 16.68755,-4.11893 50.02405,-33.54636 70.27779,-31.94796 37.81314,-0.12358 27.14285,62.70967 -24.95278,64.43845 l 0.33884,-20.4387 c 2.92791,-0.6831 15.94986,-4.50348 22.81474,-11.33985 4.46114,-4.67843 0.82906,-18.07068 -13.00392,-9.70789 l -46.10344,27.39743 c -5.1809,4.3009 -21.65035,6.60797 -28.14584,1.39174 -15.4884,9.24824 -48.03749,10.74924 -55.47681,-3.80209 l -22.54242,15.51506 c 1.59842,14.45764 -2.07142,38.51107 -26.51606,36.29474 -26.44368,-2.60743 -26.609,-38.9352 5.36326,-50.48668 l 0.10295,-6.41617 c -16.44038,11.43466 -42.91763,12.83455 -41.72663,-16.19486 3.60286,-19.85449 25.62234,-37.2176 59.2446,-38.32983 l -0.33882,20.2693 c -25.96429,1.22766 -39.4735,12.00908 -36.53062,22.10066 2.51372,2.78262 16.7219,-4.51281 22.06848,-18.67168 l 19.14776,0.3045 -0.40745,26.48176 c 0,0 7.89046,-2.42234 11.74727,-4.00582 -12.12937,-34.10028 2.94944,-62.6455 19.28285,-63.58924 z M 109.48234,267.4471 c -1.88896,0.35892 -4.00328,5.2493 -4.85501,11.4063 -0.91532,6.56748 -0.0416,12.11707 1.93428,12.39276 1.97593,0.26887 4.31284,-4.83885 5.22815,-11.40631 0.91397,-6.57425 0.0485,-12.11706 -1.93428,-12.39275 -0.12349,-0.0172 -0.2472,-0.024 -0.37314,0 z m 514.99936,5.19385 c -1.82593,0.30374 -3.94346,4.87858 -4.85503,10.69436 -0.96693,6.20351 -0.20557,11.48417 1.69841,11.78157 1.9026,0.29876 4.22692,-4.49763 5.19385,-10.69434 0.97368,-6.20353 0.2488,-11.48418 -1.66197,-11.78159 -0.11855,-0.0186 -0.25352,-0.0203 -0.37526,0 z m -368.29784,5.73854 c -1.82928,-0.0298 -3.33397,1.42892 -3.36248,3.25955 -0.0367,1.83063 1.42892,3.33182 3.25955,3.36036 1.83065,0.0299 3.33398,-1.42894 3.36249,-3.25956 0.0285,-1.82384 -1.42757,-3.33183 -3.25956,-3.36035 z m 115.84082,1.69626 c -1.59801,0.1503 -3.74531,1.67045 -5.43403,4.00797 -2.26656,3.11666 -2.86212,6.54937 -1.35742,7.63851 1.49655,1.09054 4.53302,-0.57648 6.79145,-3.70132 2.25977,-3.11534 2.89645,-6.52185 1.39175,-7.60421 -0.37583,-0.27227 -0.85909,-0.39105 -1.39175,-0.34095 z m -311.364929,1.49467 c -2.498788,-0.0435 -4.539224,1.94881 -4.582681,4.44759 -0.03667,2.50017 1.948795,4.546 4.447581,4.58266 2.491996,0.0435 4.573534,-1.94742 4.616991,-4.44756 0.03667,-2.49882 -1.983104,-4.54602 -4.481891,-4.58269 z m 609.996139,12.66296 c -2.41423,0.33653 -4.35215,3.41895 -4.41327,7.1646 -0.0584,3.98852 2.04832,7.24942 4.68563,7.29967 2.6441,0.0367 4.822,-3.16925 4.88718,-7.16459 0.0585,-3.98852 -2.014,-7.25622 -4.6513,-7.29968 -0.16482,-0.002 -0.34728,-0.0224 -0.50824,0 z m -233.95472,15.44857 c -1.9909,-0.10046 -4.05285,8.91235 -4.61914,20.16638 -0.58124,11.25266 0.5635,20.47196 2.5476,20.57382 1.98952,0.10046 4.04933,-8.95478 4.61699,-20.20068 0.57308,-11.25269 -0.56274,-20.43766 -2.54545,-20.53952 z m 134.17367,39.34845 c -2.27472,-0.1888 -4.28397,1.84802 -4.5162,4.55051 -0.22544,2.70252 1.39365,5.02579 3.667,5.22816 2.2747,0.19692 4.30936,-1.81371 4.54837,-4.5162 0.21864,-2.7025 -1.42582,-5.05877 -3.69917,-5.26247 z" /></svg>
