<?xml version="1.0" encoding="UTF-8" standalone="no"?>
<!-- Created with Inkscape (http://www.inkscape.org/) -->

<svg
   version="1.0"
   width="1039.6991"
   height="585.83124"
   id="svg2"
   xml:space="preserve"
   sodipodi:docname="Logo_Corte_Inglés.svg"
   inkscape:version="1.4 (86a8ad7, 2024-10-11)"
   xmlns:inkscape="http://www.inkscape.org/namespaces/inkscape"
   xmlns:sodipodi="http://sodipodi.sourceforge.net/DTD/sodipodi-0.dtd"
   xmlns="http://www.w3.org/2000/svg"
   xmlns:svg="http://www.w3.org/2000/svg"><sodipodi:namedview
     id="namedview1"
     pagecolor="#ffffff"
     bordercolor="#000000"
     borderopacity="0.25"
     inkscape:showpageshadow="2"
     inkscape:pageopacity="0.0"
     inkscape:pagecheckerboard="0"
     inkscape:deskcolor="#d1d1d1"
     inkscape:zoom="0.33584757"
     inkscape:cx="574.66546"
     inkscape:cy="111.6578"
     inkscape:window-width="1920"
     inkscape:window-height="1009"
     inkscape:window-x="-8"
     inkscape:window-y="-8"
     inkscape:window-maximized="1"
     inkscape:current-layer="svg2" /><defs
     id="defs5" /><path
     d="M 5.4579163,3.0753301 L 5.4579163,582.75592 L 1034.2412,295.88722 L 5.4579163,3.0753301"
     id="path139"
     style="fill:#ffffff;fill-opacity:1;fill-rule:nonzero;stroke:none" /><path
     id="path143"
     style="fill:#ffffff;fill-opacity:1;fill-rule:nonzero;stroke:none"
     d="M 22.171875 25.929688 L 22.171875 558.22852 L 966.87109 294.80859 L 22.171875 25.929688 z M 428.57227 206.63672 L 432.5918 267.58398 C 440.92216 266.71817 454.53531 268.92395 460.94727 284.00391 C 468.42419 274.13859 496.13745 268.27213 498.54688 305.24609 L 498.20703 326.21094 L 479.5918 325.90234 L 479.93359 304.62891 C 479.95338 292.98372 466.64075 292.76477 466.29688 304.07227 L 465.86328 330.35547 L 448.23828 330.07617 L 447.0625 298.7832 C 445.88499 289.11578 431.00627 283.20251 434.44727 296.89844 C 435.02242 302.56951 443.62449 369.7746 413.97656 372.13086 C 386.71581 370.36337 389.9739 301.17166 415.83203 275.96289 L 411.44141 206.85352 L 428.57227 206.63672 z M 80.916016 224.26172 C 86.902392 224.16512 92.844398 225.27093 98.140625 227.66406 L 97.830078 248.62891 C 75.531675 238.12166 57.642843 253.47252 63.167969 272.19141 C 93.127585 250.54112 112.72202 305.45033 69.845703 302.43359 C 74.855054 311.66937 88.68579 310.54658 100.95312 303.08203 C 89.06922 223.53108 162.72689 226.71007 126.03125 305.49414 C 122.47152 309.92709 134.41231 311.28297 141.49219 305.40039 L 141.24414 321.35742 C 128.79869 329.47626 115.73278 325.10409 110.66406 319.5332 C 81.246198 338.69486 42.525523 326.12459 49.591797 289.9707 C 28.227313 247.99042 54.975052 224.68033 80.916016 224.26172 z M 201.20312 230.47852 C 205.28965 230.47548 209.61488 230.81623 214.2207 231.5293 L 213.91211 250.14453 C 143.65631 232.05521 161.20761 342.47001 215.08594 302.0625 C 211.39386 283.37082 235.12128 276.94151 235.74219 290.0957 C 235.30557 296.4149 235.63827 306.70762 243.28711 307.16406 C 250.59829 307.77879 255.57028 299.22783 247.43164 298.10352 C 215.8245 287.62223 251.51138 240.2487 270.18945 279.14844 C 278.17596 279.27337 285.30377 281.88149 289.85547 288.61133 C 290.40465 285.28908 297.26443 281.40569 302.56445 282.82812 L 302.31641 299.46484 C 296.98918 299.70974 292.78248 302.13933 292.85547 307.96875 L 292.60742 324.60352 L 277.95117 324.35742 L 278.22852 308.40039 C 278.30149 303.90805 275.1764 300.85114 268.51953 300.91797 C 268.30802 314.3826 247.54985 332.19713 225.47656 318.20312 C 141.23489 370.46483 118.11051 230.54047 201.20312 230.47852 z M 686.18164 245.01172 L 695.24219 260.62695 L 659.125 283.01367 L 648.02344 268.85156 L 686.18164 245.01172 z M 315.95312 247.26758 L 332.0957 247.36133 L 328.47656 285.88867 L 333.48633 285.98242 C 359.24428 235.48448 408.03542 284.17049 354.11133 306.60742 C 361.11081 316.36637 371.8069 312.3743 380.39453 306.35938 L 380.11719 325.00586 C 369.30566 335.47973 341.85323 334.52365 333.91992 310.10156 C 331.37319 303.07487 327.0161 304.51899 327.14844 306.85547 L 326.83789 326.98438 L 310.69727 326.70703 L 311.13086 300.11328 L 307.29492 299.86719 L 307.57422 283.57031 L 313.04688 283.66406 L 315.95312 247.26758 z M 588.2207 253.29883 C 589.21244 253.24153 590.22579 253.31238 591.2207 253.48438 C 617.27055 258.22162 610.4126 291.37725 594.28125 312.08008 C 596.87498 316.11725 603.32322 318.72953 610.70117 315.51367 C 594.37688 264.17589 665.53857 267.13732 647.74609 308.61719 C 662.94483 304.86574 693.30714 278.06373 711.75391 279.51953 C 746.19349 279.40697 736.47516 336.63444 689.02734 338.20898 L 689.33594 319.59375 C 692.00264 318.9716 703.86282 315.49206 710.11523 309.26562 C 714.17837 305.00458 710.87033 292.80715 698.27148 300.42383 L 656.28125 325.37695 C 651.56257 329.29414 636.56247 331.39538 630.64648 326.64453 C 616.53991 335.06766 586.89475 336.43475 580.11914 323.18164 L 559.58789 337.3125 C 561.0437 350.48028 557.70127 372.38773 535.4375 370.36914 C 511.35305 367.99434 511.20248 334.90761 540.32227 324.38672 L 540.41602 318.54297 C 525.4424 328.95747 501.32736 330.23247 502.41211 303.79297 C 505.69354 285.70984 525.7485 269.89581 556.37109 268.88281 L 556.0625 287.34375 C 532.41466 288.46188 520.11069 298.28142 522.79102 307.47266 C 525.08047 310.00702 538.02105 303.36247 542.89062 290.4668 L 560.33008 290.74414 L 559.95898 314.86328 C 559.95898 314.86328 567.14548 312.65705 570.6582 311.21484 C 559.61097 280.15688 573.3445 254.15837 588.2207 253.29883 z M 118.95117 268.88281 C 117.23073 269.20971 115.30505 273.66379 114.5293 279.27148 C 113.69565 285.25302 114.49136 290.3075 116.29102 290.55859 C 118.09067 290.80347 120.21908 286.15145 121.05273 280.16992 C 121.88515 274.1822 121.09686 269.1339 119.29102 268.88281 C 119.17855 268.86712 119.06587 268.86102 118.95117 268.88281 z M 588.00391 273.61328 C 586.34088 273.88992 584.41228 278.05661 583.58203 283.35352 C 582.70137 289.00357 583.39481 293.81311 585.12891 294.08398 C 586.86177 294.35608 588.97871 289.98762 589.85938 284.34375 C 590.7462 278.69368 590.08599 273.88416 588.3457 273.61328 C 588.23771 273.59635 588.11479 273.59484 588.00391 273.61328 z M 252.56445 278.83984 C 250.89837 278.81263 249.52792 280.14128 249.50195 281.80859 C 249.46855 283.4759 250.80339 284.84316 252.4707 284.86914 C 254.13801 284.89638 255.50722 283.5677 255.5332 281.90039 C 255.55917 280.23927 254.23299 278.86582 252.56445 278.83984 z M 358.07031 280.38477 C 356.61487 280.52166 354.65914 281.90619 353.12109 284.03516 C 351.05674 286.87377 350.51432 290.00022 351.88477 290.99219 C 353.24781 291.98543 356.01338 290.46714 358.07031 287.62109 C 360.12847 284.78369 360.70835 281.6811 359.33789 280.69531 C 358.99559 280.44732 358.55545 280.33914 358.07031 280.38477 z M 74.484375 281.74609 C 72.208521 281.7065 70.350127 283.52103 70.310547 285.79688 C 70.277149 288.07399 72.085476 289.9373 74.361328 289.9707 C 76.630996 290.01029 78.526826 288.19701 78.566406 285.91992 C 78.599802 283.64405 76.760228 281.77949 74.484375 281.74609 z M 630.05859 293.2793 C 627.85974 293.5858 626.09472 296.39322 626.03906 299.80469 C 625.98586 303.43738 627.90463 306.40735 630.30664 306.45312 C 632.71485 306.4865 634.69844 303.56662 634.75781 299.92773 C 634.811 296.29505 632.9235 293.31888 630.52148 293.2793 C 630.37136 293.27722 630.20519 293.25887 630.05859 293.2793 z M 416.97656 307.34961 C 415.16329 307.2581 413.2853 315.46681 412.76953 325.7168 C 412.24015 335.96553 413.28276 344.36231 415.08984 344.45508 C 416.90186 344.54662 418.7779 336.29922 419.29492 326.05664 C 419.81687 315.80789 418.78239 307.44238 416.97656 307.34961 z M 539.17969 343.1875 C 537.10791 343.01555 535.27792 344.87065 535.06641 347.33203 C 534.86108 349.79344 536.33572 351.90945 538.40625 352.09375 C 540.47801 352.2731 542.33114 350.44186 542.54883 347.98047 C 542.74796 345.51908 541.25022 343.37303 539.17969 343.1875 z " /></svg>
