<?xml version="1.0" encoding="UTF-8" standalone="no"?>
<svg
   version="1.1"
   id="Layer_1"
   x="0px"
   y="0px"
   viewBox="0 0 181.2 55"
   style="enable-background:new 0 0 181.2 55;"
   xml:space="preserve"
   sodipodi:docname="fnac.svg"
   inkscape:version="1.4 (86a8ad7, 2024-10-11)"
   xmlns:inkscape="http://www.inkscape.org/namespaces/inkscape"
   xmlns:sodipodi="http://sodipodi.sourceforge.net/DTD/sodipodi-0.dtd"
   xmlns="http://www.w3.org/2000/svg"
   xmlns:svg="http://www.w3.org/2000/svg"
   xmlns:ns="ns_sfw;"><defs
   id="defs2">
  
  
 </defs><sodipodi:namedview
   id="namedview2"
   pagecolor="#ffffff"
   bordercolor="#000000"
   borderopacity="0.25"
   inkscape:showpageshadow="2"
   inkscape:pageopacity="0.0"
   inkscape:pagecheckerboard="0"
   inkscape:deskcolor="#d1d1d1"
   inkscape:zoom="0.63603755"
   inkscape:cx="91.189585"
   inkscape:cy="321.5219"
   inkscape:window-width="1920"
   inkscape:window-height="1009"
   inkscape:window-x="-8"
   inkscape:window-y="-8"
   inkscape:window-maximized="1"
   inkscape:current-layer="Layer_1" />
 <style
   type="text/css"
   id="style1">
  .st0{fill:none;}
	.st1{fill:#E9AA00;}
 </style>
 <metadata
   id="metadata1">
  <ns:sfw>
   <ns:slices>
   </ns:slices>
   <ns:sliceSourceBounds
   bottomLeftOrigin="true"
   height="55"
   width="181.2"
   x="-149.2"
   y="0">
   </ns:sliceSourceBounds>
  </ns:sfw>
 </metadata>
 <path
   class="st1"
   d="m 56,16.4 c -5.9,1.6 -8.3,4 -9.2,5.3 V 16.6 H 16.1 C 15.2,6.8 25.4,7 25.4,7 35.3,6.6 35.7,13.1 35.7,13.1 H 46.9 C 46.9,1.6 30.9,0.2 30.9,0.2 15.2,-1.1 9.8,4.3 9.8,4.3 4.9,8.5 5,15.2 5.1,16.7 H 0 l 0.1,7.6 h 5 v 29.9 h 11.1 v -30 l 19.5,0.1 v 29.9 h 11.1 v -21 c 0.6,-3.6 2.9,-8.5 11.6,-9.2 0,0 12.6,-2 14.2,9.3 V 54.2 H 83.8 V 29 C 81.3,11 56,16.5 56,16.5 Z m 75.3,15.3 c 1,-13 -12.7,-14.9 -12.7,-14.9 -12.3,-2 -19.2,0 -19.4,0 -12,2.8 -12,12.4 -12,12.4 h 11.3 c 0,0 0.1,-7.5 12.3,-6.5 0,0 8.8,0.4 9.3,4.4 0,0 2.8,4.8 -9.3,5.4 C 98.5,33.2 84,33 85.5,44.3 c 0,0 -0.3,11 19.7,10.6 0,0 10.6,0.3 15,-5.1 V 50 l 0.3,4.2 h 11 z m -12.5,12.4 c -2.8,3.4 -6.1,4.4 -10,4.6 -3.5,0.2 -10.9,0.8 -11,-4.9 -0.2,-5.3 8.9,-5.1 14.9,-5.5 0,0 6.1,0 7.4,-1.7 0,0 0,-0.2 0,0 0,0.3 1.1,4.6 -1.3,7.5 z m 51,-2.5 c -1.7,3.6 -4.5,5.7 -11.7,5.7 -3.1,0.1 -12.9,-1 -13.4,-11.6 v -0.4 c 0.3,-10.6 10.4,-11.7 13.7,-11.8 6.1,-0.1 9.5,1.8 11.3,5.4 L 181,28.8 c 0,-1.2 -0.4,-2.5 -1,-3.6 -2.3,-4.2 -8,-9.5 -22.4,-9.1 -4,0 -7.9,0.7 -11.7,1.9 -4.9,1.9 -13.4,7.1 -12.9,18.1 0.6,11.6 8.5,15 13.1,16.9 3.1,1.3 7,1.7 11.8,1.7 14.4,0.3 20,-5.3 22.2,-9.6 0.7,-1.5 0.9,-2.3 1,-3.6 0.1,0 -11.3,0.1 -11.3,0.1 z"
   id="path2"
   style="fill:#ffffff">
  </path>
</svg>
