<?xml version="1.0" encoding="UTF-8" standalone="no"?>
<svg
   version="1.1"
   id="Layer_1"
   x="0px"
   y="0px"
   viewBox="0 0 181.2 55"
   style="enable-background:new 0 0 181.2 55;"
   xml:space="preserve"
   sodipodi:docname="Fnac_idJNJiL6Eo_0.svg"
   inkscape:version="1.4 (86a8ad7, 2024-10-11)"
   xmlns:inkscape="http://www.inkscape.org/namespaces/inkscape"
   xmlns:sodipodi="http://sodipodi.sourceforge.net/DTD/sodipodi-0.dtd"
   xmlns="http://www.w3.org/2000/svg"
   xmlns:svg="http://www.w3.org/2000/svg"
   xmlns:ns="ns_sfw;"><defs
   id="defs2" /><sodipodi:namedview
   id="namedview2"
   pagecolor="#ffffff"
   bordercolor="#000000"
   borderopacity="0.25"
   inkscape:showpageshadow="2"
   inkscape:pageopacity="0.0"
   inkscape:pagecheckerboard="0"
   inkscape:deskcolor="#d1d1d1"
   inkscape:zoom="1.2720751"
   inkscape:cx="16.901518"
   inkscape:cy="71.929717"
   inkscape:window-width="1920"
   inkscape:window-height="1009"
   inkscape:window-x="-8"
   inkscape:window-y="-8"
   inkscape:window-maximized="1"
   inkscape:current-layer="Layer_1" />
 <style
   type="text/css"
   id="style1">
  .st0{fill:none;}
	.st1{fill:#E9AA00;}
 </style>
 <metadata
   id="metadata1">
  <ns:sfw>
   <ns:slices>
   </ns:slices>
   <ns:sliceSourceBounds
   bottomLeftOrigin="true"
   height="55"
   width="181.2"
   x="-149.2"
   y="0">
   </ns:sliceSourceBounds>
  </ns:sfw>
 </metadata>
 <g
   id="g2"
   style="fill:#ffffff">
  <path
   class="st0"
   d="M120,36.6c-1.2,1.7-7.3,1.7-7.3,1.7c-6.1,0.4-15.1,0.2-14.9,5.5c0.1,5.7,7.5,5,11,4.9c3.9,0.1,7.6-1.6,10-4.6   c2.4-2.9,1.4-7.2,1.4-7.5C120.1,36.5,120,36.6,120,36.6z"
   id="path1"
   style="fill:#ffffff">
  </path>
  <path
   class="st1"
   d="M56,16.4c-5.9,1.6-8.3,4-9.2,5.3v-5.1H16.1C15.2,6.8,25.4,7,25.4,7c9.9-0.4,10.3,6.1,10.3,6.1h11.2   c0-11.5-16-12.9-16-12.9C15.2-1.1,9.8,4.3,9.8,4.3C4.9,8.5,5,15.2,5.1,16.7H0l0.1,7.6h5v29.9h11.1v-30l19.5,0.1v29.9h11.1V33.2   c0.6-3.6,2.9-8.5,11.6-9.2c0,0,12.6-2,14.2,9.3v20.9h11.2V29c-2.5-18-27.8-12.5-27.8-12.5L56,16.4z M131.3,31.7   c1-13-12.7-14.9-12.7-14.9c-12.3-2-19.2,0-19.4,0c-12,2.8-12,12.4-12,12.4h11.3c0,0,0.1-7.5,12.3-6.5c0,0,8.8,0.4,9.3,4.4   c0,0,2.8,4.8-9.3,5.4C98.5,33.2,84,33,85.5,44.3c0,0-0.3,11,19.7,10.6c0,0,10.6,0.3,15-5.1V50l0.3,4.2h11L131.3,31.7L131.3,31.7z    M118.8,44.1c-2.8,3.4-6.1,4.4-10,4.6c-3.5,0.2-10.9,0.8-11-4.9c-0.2-5.3,8.9-5.1,14.9-5.5c0,0,6.1,0,7.4-1.7c0,0,0-0.2,0,0   C120.1,36.9,121.2,41.2,118.8,44.1z M169.8,41.6c-1.7,3.6-4.5,5.7-11.7,5.7c-3.1,0.1-12.9-1-13.4-11.6v-0.4   c0.3-10.6,10.4-11.7,13.7-11.8c6.1-0.1,9.5,1.8,11.3,5.4l11.3-0.1c0-1.2-0.4-2.5-1-3.6c-2.3-4.2-8-9.5-22.4-9.1   c-4,0-7.9,0.7-11.7,1.9c-4.9,1.9-13.4,7.1-12.9,18.1c0.6,11.6,8.5,15,13.1,16.9c3.1,1.3,7,1.7,11.8,1.7c14.4,0.3,20-5.3,22.2-9.6   c0.7-1.5,0.9-2.3,1-3.6C181.2,41.5,169.8,41.6,169.8,41.6z"
   id="path2"
   style="fill:#ffffff">
  </path>
 </g>
</svg>
