<?xml version="1.0" encoding="UTF-8" standalone="no"?>
<!-- Created with Inkscape (http://www.inkscape.org/) -->

<svg
   width="72mm"
   height="72mm"
   viewBox="0 0 72 72"
   version="1.1"
   id="svg1"
   xml:space="preserve"
   inkscape:version="1.4 (86a8ad7, 2024-10-11)"
   sodipodi:docname="instagram.svg"
   xmlns:inkscape="http://www.inkscape.org/namespaces/inkscape"
   xmlns:sodipodi="http://sodipodi.sourceforge.net/DTD/sodipodi-0.dtd"
   xmlns="http://www.w3.org/2000/svg"
   xmlns:svg="http://www.w3.org/2000/svg"><sodipodi:namedview
     id="namedview1"
     pagecolor="#ffffff"
     bordercolor="#000000"
     borderopacity="0.25"
     inkscape:showpageshadow="2"
     inkscape:pageopacity="0.0"
     inkscape:pagecheckerboard="0"
     inkscape:deskcolor="#d1d1d1"
     inkscape:document-units="mm"
     inkscape:zoom="0.24094752"
     inkscape:cx="186.76266"
     inkscape:cy="624.61734"
     inkscape:window-width="1920"
     inkscape:window-height="1009"
     inkscape:window-x="-8"
     inkscape:window-y="-8"
     inkscape:window-maximized="1"
     inkscape:current-layer="g6" /><defs
     id="defs1"><g
       id="g1" /><clipPath
       id="ef87fc712d"><path
         d="M 0.886719,0 H 1199.1133 V 674 H 0.886719 Z m 0,0"
         clip-rule="nonzero"
         id="path1-8" /></clipPath><clipPath
       id="18b4cb64c8"><path
         d="m 278.73828,273.32422 h 115.91406 v 105.8164 H 278.73828 Z m 0,0"
         clip-rule="nonzero"
         id="path2-8" /></clipPath><clipPath
       id="1e7e377b1f"><rect
         x="0"
         width="149"
         y="0"
         height="71"
         id="rect3-4" /></clipPath><clipPath
       id="5b316fbd7f"><path
         d="m 526.5,272.76562 h 147 v 88.44141 h -147 z m 0,0"
         clip-rule="nonzero"
         id="path4" /></clipPath><clipPath
       id="9cbf4c9d92"><path
         d="m 565,257.85937 h 71 V 276 h -71 z m 0,0"
         clip-rule="nonzero"
         id="path5" /></clipPath><clipPath
       id="ecbe230171"><path
         d="m 526.5,288.01172 h 147 v 57.25 h -147 z m 0,0"
         clip-rule="nonzero"
         id="path6" /></clipPath><clipPath
       id="a4ed547ce6"><rect
         x="0"
         width="204"
         y="0"
         height="71"
         id="rect6-5" /></clipPath><clipPath
       id="292461c61b"><path
         d="m 833,360 h 87 v 18.84766 h -87 z m 0,0"
         clip-rule="nonzero"
         id="path7-5" /></clipPath><clipPath
       id="6a2185c9d5"><path
         d="M 821.36719,240.30469 H 931.45312 V 355 H 821.36719 Z m 0,0"
         clip-rule="nonzero"
         id="path8-1" /></clipPath><clipPath
       id="f51ef1861f"><rect
         x="0"
         width="159"
         y="0"
         height="71"
         id="rect8-7" /></clipPath><clipPath
       clipPathUnits="userSpaceOnUse"
       id="clipPath8"><path
         d="M 12.765999,35.826543 H 74.458614 V 97.374356 H 12.765999 Z m 0,0"
         clip-rule="nonzero"
         id="path8"
         style="stroke-width:0.452051" /></clipPath><clipPath
       id="cc6cdf5ae1"><path
         d="M 0.886719 0 L 1199.113281 0 L 1199.113281 674 L 0.886719 674 Z M 0.886719 0 "
         clip-rule="nonzero"
         id="path1" /></clipPath><clipPath
       id="911b4be70f"><path
         d="M 512.378906 205.394531 L 810.4375 205.394531 L 810.4375 474.992188 L 512.378906 474.992188 Z M 512.378906 205.394531 "
         clip-rule="nonzero"
         id="path2" /></clipPath><clipPath
       id="42a5dc3af8"><path
         d="M 821.652344 205.394531 L 1056.804688 205.394531 L 1056.804688 474.992188 L 821.652344 474.992188 Z M 821.652344 205.394531 "
         clip-rule="nonzero"
         id="path3" /></clipPath><clipPath
       id="01ea427a7e"><path
         d="M 231.863281 205.394531 L 501.464844 205.394531 L 501.464844 474.992188 L 231.863281 474.992188 Z M 231.863281 205.394531 "
         clip-rule="nonzero"
         id="path4-7" /></clipPath><clipPath
       id="828d35b8fe"><path
         d="M 1 206 L 221.0625 206 L 221.0625 474.992188 L 1 474.992188 Z M 1 206 "
         clip-rule="nonzero"
         id="path5-6" /></clipPath><clipPath
       id="2b6e8c0a99"><path
         d="M 1068.019531 205.394531 L 1195.332031 205.394531 L 1195.332031 474.992188 L 1068.019531 474.992188 Z M 1068.019531 205.394531 "
         clip-rule="nonzero"
         id="path6-1" /></clipPath><clipPath
       id="5fa7a2c30f"><path
         d="M 0.886719 0 L 1199.113281 0 L 1199.113281 674 L 0.886719 674 Z M 0.886719 0 "
         clip-rule="nonzero"
         id="path1-6" /></clipPath><clipPath
       id="9b47bb9012"><path
         d="M 261.050781 203 L 438.535156 203 L 438.535156 471 L 261.050781 471 Z M 261.050781 203 "
         clip-rule="nonzero"
         id="path2-85" /></clipPath></defs><g
     inkscape:label="Capa 1"
     inkscape:groupmode="layer"
     id="layer1"><g
       id="g5"
       transform="translate(-10.094118,-30.670589)"><g
         id="g6"
         transform="matrix(1.111861,0,0,1.111861,-2.3706689,-7.2777547)"><path
           fill="#ffffff"
           d="m 71.682736,62.266234 h -9.201708 l 1.273156,-13.814049 9.542519,-0.05121 z m -1.513309,12.856966 -8.88563,0.0141 1.096577,-11.836321 h 9.175222 z m -39.037085,-26.49443 1.1213,13.6251 H 23.505748 L 22.094851,48.678211 Z m 17.066697,13.637464 0.06357,-13.725754 14.444447,-0.0883 -1.273161,13.814049 z m 0,1.034772 h 13.134199 l -1.096576,11.83632 -12.101195,0.02473 z M 33.313136,62.266234 32.17771,48.62877 47.21547,48.54048 47.15367,62.266234 Z m 0.01234,12.920538 -8.483019,0.01234 -1.236079,-11.898125 h 8.735535 z m 0.06357,-11.885766 h 13.764603 l -0.05121,11.861043 -12.731594,0.02473 z m 9.351807,27.364985 c 0,3.024855 -2.458028,5.482882 -5.482887,5.482882 -3.024859,0 -5.482887,-2.458027 -5.482887,-5.482882 0,-3.024859 2.458028,-5.482887 5.482887,-5.482887 3.024859,0 5.482887,2.458028 5.482887,5.482887 z m 22.676718,0 c 0,3.024855 -2.458028,5.482882 -5.482887,5.482882 -3.024855,0 -5.482882,-2.458027 -5.482882,-5.482882 0,-3.024859 2.458027,-5.482887 5.482882,-5.482887 3.024877,-0.01236 5.482905,2.458028 5.482905,5.482887 z m 8.86091,-43.147924 C 74.177832,47.405054 74.027732,47.367973 73.888234,47.34325 L 21.992416,47.645206 20.819909,36.299782 c -0.02473,-0.263107 -0.250748,-0.466178 -0.515623,-0.466178 h -7.020919 c -0.289593,0 -0.517386,0.227793 -0.517386,0.517386 0,0.289598 0.227793,0.517386 0.517386,0.517386 h 6.542382 l 1.172507,11.343657 0.969438,9.429506 2.798833,27.063028 c 0.02473,0.264871 0.252511,0.466178 0.517386,0.466178 h 8.431811 c -1.802906,1.158381 -3.000137,3.189076 -3.000137,5.482882 0,3.605813 2.924206,6.530019 6.530023,6.530019 3.591686,0 6.530018,-2.925969 6.530018,-6.530019 0,-2.293806 -1.198993,-4.324501 -3.000136,-5.482882 h 15.629314 c -1.802907,1.158381 -3.000137,3.189076 -3.000137,5.482882 0,3.605813 2.924205,6.530019 6.530018,6.530019 3.60405,0 6.530023,-2.925969 6.530023,-6.517655 0,-2.293807 -1.198998,-4.322739 -3.000137,-5.482887 h 5.885493 c 0.289593,0 0.517386,-0.227793 0.517386,-0.517386 0,-0.289598 -0.227793,-0.515623 -0.517386,-0.515623 H 25.774814 l -0.819343,-7.89147 45.680115,-0.07593 c 0.264875,0 0.492664,-0.201302 0.517386,-0.466177 L 74.40562,47.92244 c 0.02473,-0.137735 -0.02649,-0.289597 -0.127139,-0.404373"
           fill-opacity="1"
           fill-rule="nonzero"
           id="path12"
           style="fill:#ffffff;stroke-width:0.452051"
           clip-path="url(#clipPath8)"
           sodipodi:nodetypes="ccccccccccccccccccccccccccccccccccccccccssssscsscccccccssssccccscsssccssscssscccccc" /><g
           clip-path="url(#01ea427a7e)"
           id="g11"
           transform="matrix(0.21821021,0,0,0.21821021,-36.420566,-7.7250479)"
           style="fill:#383838;fill-opacity:1"><path
             fill="#000000"
             d="m 310.83594,206.33594 c -14.34375,0.67578 -24.13672,2.96484 -32.69922,6.33203 -8.86328,3.45312 -16.375,8.08594 -23.84766,15.58594 -7.47265,7.5 -12.07422,15.01953 -15.5039,23.89453 -3.32032,8.57812 -5.56641,18.38281 -6.20313,32.73437 -0.63281,14.35156 -0.77344,18.96094 -0.70312,55.57031 0.0703,36.60547 0.23437,41.19532 0.92968,55.57422 0.6836,14.33985 2.96485,24.13282 6.32813,32.69532 3.46094,8.86328 8.08984,16.37109 15.59375,23.84765 7.5,7.47656 15.01172,12.06641 23.91015,15.50391 8.57422,3.3125 18.37891,5.57031 32.72657,6.19922 14.34765,0.6289 18.96484,0.77343 55.5625,0.70312 36.59375,-0.0703 41.20312,-0.23047 55.57812,-0.91406 14.37891,-0.67969 24.1211,-2.97656 32.6875,-6.32813 8.86328,-3.46484 16.375,-8.08593 23.84766,-15.59375 7.46875,-7.5039 12.07031,-15.02734 15.49609,-23.90625 3.32031,-8.57421 5.57813,-18.3789 6.19922,-32.71484 0.62891,-14.39062 0.77734,-18.98437 0.70703,-55.58594 -0.0703,-36.60156 -0.23437,-41.1875 -0.91797,-55.5625 -0.67968,-14.375 -2.96484,-24.14062 -6.32422,-32.71093 -3.46484,-8.85938 -8.08984,-16.36329 -15.58984,-23.84375 -7.5,-7.48438 -15.02734,-12.07813 -23.90625,-15.4961 -8.57812,-3.32031 -18.37891,-5.58203 -32.72656,-6.20312 -14.34766,-0.6211 -18.96485,-0.77735 -55.57422,-0.70703 -36.60938,0.0703 -41.19141,0.22656 -55.57031,0.92578 m 1.57422,243.6875 c -13.14454,-0.57032 -20.28125,-2.75782 -25.03516,-4.58203 -6.29688,-2.42969 -10.78516,-5.36329 -15.52344,-10.05469 -4.73828,-4.69531 -7.65234,-9.19531 -10.10937,-15.48047 -1.84766,-4.75781 -4.07032,-11.88281 -4.6875,-25.02734 -0.66797,-14.20704 -0.8086,-18.46875 -0.88672,-54.46094 -0.0781,-35.98828 0.0586,-40.2461 0.68359,-54.45703 0.5586,-13.13282 2.75781,-20.27735 4.58203,-25.03125 2.42578,-6.30469 5.34766,-10.78516 10.05469,-15.51953 4.70313,-4.73829 9.19141,-7.65625 15.48047,-10.11329 4.75391,-1.85546 11.87891,-4.05859 25.01953,-4.6875 14.21484,-0.67187 18.47266,-0.80859 54.45703,-0.88671 35.98438,-0.0781 40.25391,0.0586 54.47656,0.68359 13.13282,0.57031 20.27735,2.74609 25.02735,4.58203 6.30078,2.42578 10.78515,5.34375 15.51953,10.05469 4.73828,4.71094 7.65625,9.18359 10.11719,15.48828 1.85547,4.73828 4.0625,11.86328 4.68359,25.00781 0.67578,14.21485 0.82813,18.48047 0.89453,54.46094 0.0625,35.98047 -0.0625,40.25391 -0.6875,54.45703 -0.57422,13.14453 -2.75,20.28125 -4.58203,25.04297 -2.42578,6.29687 -5.35156,10.78516 -10.05859,15.51953 -4.70703,4.73438 -9.19141,7.65234 -15.48438,10.10938 -4.74219,1.85156 -11.8789,4.0625 -25.00781,4.6875 -14.21484,0.67187 -18.47656,0.80859 -54.47266,0.88671 -35.99609,0.0781 -40.24218,-0.0664 -54.45703,-0.67968 m 109.88672,-181.875 c 0.004,0.52734 0.0273,1.05859 0.082,1.58593 0.0508,0.52735 0.13281,1.05079 0.23438,1.57032 0.10547,0.51953 0.23437,1.03125 0.39062,1.53906 0.15235,0.50391 0.33203,1.00391 0.53516,1.49219 0.20312,0.48828 0.42969,0.96875 0.68359,1.43359 0.25,0.46875 0.52344,0.92188 0.81641,1.35938 0.29687,0.4414 0.61328,0.86718 0.94922,1.27343 0.33593,0.41016 0.6914,0.80078 1.0664,1.17578 0.375,0.375 0.76953,0.73047 1.17969,1.0625 0.41016,0.33594 0.83594,0.65235 1.27734,0.94532 0.44141,0.29297 0.89454,0.5664 1.36329,0.8125 0.46484,0.25 0.94531,0.47656 1.43359,0.67578 0.49219,0.20312 0.98828,0.38281 1.49609,0.53515 0.50782,0.15235 1.02344,0.28125 1.54297,0.38282 0.51953,0.10156 1.04297,0.17968 1.57031,0.23047 0.52735,0.0508 1.05469,0.0742 1.58594,0.0742 0.52735,0 1.0586,-0.0273 1.58594,-0.082 0.52734,-0.0508 1.05078,-0.1289 1.57031,-0.23437 0.51563,-0.10547 1.03125,-0.23438 1.53906,-0.39063 0.50391,-0.15234 1.00391,-0.33203 1.49219,-0.53515 0.48828,-0.20313 0.96875,-0.42969 1.4336,-0.6836 0.46875,-0.25 0.92187,-0.52343 1.35937,-0.8164 0.44141,-0.29688 0.86719,-0.61328 1.27344,-0.94922 0.41015,-0.33594 0.80078,-0.69141 1.17578,-1.06641 0.375,-0.375 0.72656,-0.76953 1.0625,-1.17969 0.33594,-0.41015 0.65234,-0.83593 0.94531,-1.27734 0.29297,-0.44141 0.5625,-0.89453 0.8125,-1.36328 0.25,-0.46875 0.47266,-0.94531 0.67578,-1.4375 0.20313,-0.48828 0.37891,-0.98828 0.53125,-1.49219 0.15235,-0.50781 0.28125,-1.02344 0.38282,-1.54297 0.10546,-0.51953 0.17968,-1.04297 0.23046,-1.57031 0.0508,-0.52734 0.0781,-1.05469 0.0742,-1.58594 0,-0.53125 -0.0273,-1.05859 -0.0781,-1.58593 -0.0547,-0.52735 -0.13281,-1.05079 -0.23828,-1.57032 -0.10157,-0.51953 -0.23438,-1.03125 -0.38672,-1.53906 -0.15625,-0.50781 -0.33594,-1.00391 -0.53906,-1.49219 -0.20313,-0.48828 -0.42969,-0.96875 -0.67969,-1.43359 -0.25,-0.46875 -0.52344,-0.92188 -0.82031,-1.35938 -0.29297,-0.4414 -0.60938,-0.86718 -0.94922,-1.27343 -0.33594,-0.41016 -0.69141,-0.80078 -1.06641,-1.17578 -0.375,-0.375 -0.76953,-0.72657 -1.17969,-1.0625 -0.41015,-0.33594 -0.83593,-0.65235 -1.27734,-0.94532 -0.44141,-0.29297 -0.89453,-0.5625 -1.36328,-0.8125 -0.46485,-0.25 -0.94531,-0.47265 -1.4336,-0.67578 -0.49218,-0.20312 -0.99218,-0.3789 -1.49609,-0.53125 -0.50781,-0.15234 -1.02344,-0.28125 -1.54297,-0.38281 -0.51953,-0.10156 -1.04297,-0.17969 -1.57031,-0.23047 -0.52734,-0.0508 -1.05469,-0.0742 -1.58594,-0.0742 -0.53125,0 -1.05859,0.0273 -1.58594,0.082 -0.52734,0.0508 -1.05078,0.12891 -1.5664,0.23438 -0.51953,0.10547 -1.03516,0.23437 -1.53906,0.38672 -0.50782,0.15625 -1.00782,0.33593 -1.4961,0.53906 -0.48828,0.20312 -0.96484,0.42969 -1.43359,0.67969 -0.46485,0.2539 -0.91797,0.52343 -1.35938,0.82031 -0.4375,0.29687 -0.86328,0.60937 -1.27343,0.94922 -0.40625,0.33594 -0.79688,0.6914 -1.17188,1.0664 -0.375,0.375 -0.73047,0.76954 -1.06641,1.17969 -0.33203,0.41016 -0.64843,0.83594 -0.9414,1.27344 -0.29297,0.44141 -0.5625,0.89844 -0.8125,1.36328 -0.25,0.46875 -0.47656,0.94531 -0.67578,1.4375 -0.20313,0.48828 -0.37891,0.98828 -0.53125,1.49609 -0.15625,0.50391 -0.28125,1.01954 -0.38672,1.53907 -0.10156,0.51953 -0.17578,1.04297 -0.22656,1.57031 -0.0547,0.52734 -0.0781,1.05469 -0.0781,1.58594 m -124.85156,72.17968 c 0.0742,38.23047 31.125,69.14844 69.34375,69.07813 38.22265,-0.0742 69.16406,-31.11719 69.08984,-69.34766 -0.0703,-38.23047 -31.125,-69.16015 -69.35156,-69.08203 -38.22656,0.0742 -69.15234,31.12891 -69.08203,69.35156 m 24.28125,-0.0508 c -0.004,-1.46875 0.0664,-2.9375 0.20703,-4.40234 0.14062,-1.46484 0.35547,-2.91797 0.63672,-4.36328 0.28515,-1.44531 0.64062,-2.8711 1.0664,-4.28125 0.42188,-1.40625 0.91407,-2.79297 1.47657,-4.15235 0.55859,-1.36328 1.1875,-2.6914 1.875,-3.99218 0.6914,-1.29688 1.44531,-2.5625 2.26172,-3.78516 0.8164,-1.22656 1.6875,-2.41016 2.62109,-3.54687 0.92969,-1.14063 1.91406,-2.23047 2.95312,-3.27344 1.03907,-1.04297 2.125,-2.03125 3.26172,-2.96875 1.13672,-0.9336 2.3125,-1.8125 3.53516,-2.63281 1.22266,-0.82032 2.48437,-1.57813 3.77734,-2.27344 1.29688,-0.69922 2.625,-1.32813 3.98438,-1.89453 1.35937,-0.56641 2.74219,-1.0625 4.14844,-1.4961 1.40625,-0.42968 2.83203,-0.78906 4.27734,-1.07812 1.44141,-0.28906 2.89453,-0.50781 4.35937,-0.65625 1.46485,-0.14453 2.9336,-0.22266 4.40235,-0.22266 1.47265,-0.004 2.9414,0.0664 4.40625,0.20703 1.46484,0.14063 2.91797,0.35157 4.36328,0.63672 1.44531,0.28516 2.87109,0.64063 4.27734,1.0625 1.41016,0.42578 2.79688,0.91797 4.15625,1.47656 1.35938,0.5625 2.69141,1.1875 3.99219,1.87891 1.29688,0.69141 2.55859,1.44531 3.78516,2.26172 1.22656,0.8125 2.40625,1.6875 3.54687,2.61719 1.14063,0.93359 2.23047,1.91797 3.27344,2.95703 1.04297,1.03906 2.03125,2.125 2.96875,3.26172 0.93359,1.13281 1.8125,2.3125 2.63281,3.53515 0.82031,1.22266 1.57813,2.48047 2.27344,3.77735 0.69531,1.29687 1.32812,2.625 1.89453,3.98437 0.56641,1.35547 1.0625,2.73828 1.49219,4.14844 0.42969,1.40625 0.79297,2.83203 1.08203,4.27344 0.28906,1.44531 0.50781,2.89843 0.65625,4.36328 0.14453,1.46094 0.21875,2.92969 0.22266,4.40234 0.004,1.47266 -0.0664,2.94141 -0.20704,4.40625 -0.14062,1.46485 -0.35546,2.91797 -0.63671,4.36328 -0.28516,1.44141 -0.64063,2.86719 -1.0625,4.27735 -0.42579,1.41015 -0.91797,2.79297 -1.48047,4.15625 -0.5586,1.35937 -1.1836,2.6914 -1.875,3.98828 -0.69141,1.30078 -1.44532,2.5625 -2.26172,3.78906 -0.8125,1.22266 -1.6875,2.40625 -2.61719,3.54688 -0.93359,1.13671 -1.91797,2.23046 -2.95703,3.27343 -1.03906,1.03907 -2.125,2.03125 -3.26172,2.96485 -1.13672,0.9375 -2.3125,1.8164 -3.53516,2.63672 -1.22265,0.82031 -2.48046,1.57812 -3.77734,2.27343 -1.29687,0.69532 -2.625,1.32813 -3.98437,1.89453 -1.35938,0.5625 -2.74219,1.0625 -4.14844,1.49219 -1.40625,0.42969 -2.83203,0.78906 -4.27344,1.07813 -1.44531,0.29297 -2.89844,0.51172 -4.36328,0.65625 -1.46484,0.14843 -2.92969,0.22265 -4.40234,0.22656 -1.47266,0.004 -2.94141,-0.0664 -4.40625,-0.20703 -1.46485,-0.14063 -2.91797,-0.35547 -4.36329,-0.63672 -1.44531,-0.28516 -2.87109,-0.64063 -4.27734,-1.06641 -1.41016,-0.42187 -2.79687,-0.91406 -4.15625,-1.47656 -1.36328,-0.55859 -2.69141,-1.18359 -3.99219,-1.875 -1.29687,-0.69141 -2.55859,-1.44531 -3.78515,-2.26172 -1.22657,-0.8125 -2.41016,-1.6875 -3.54688,-2.61719 -1.14062,-0.93359 -2.23047,-1.91796 -3.27344,-2.95703 -1.04296,-1.03906 -2.03125,-2.125 -2.96875,-3.26172 -0.9375,-1.13671 -1.8125,-2.3125 -2.63281,-3.53515 -0.82031,-1.22266 -1.57812,-2.48047 -2.27344,-3.77735 -0.69921,-1.29687 -1.32812,-2.625 -1.89453,-3.98437 -0.5664,-1.35938 -1.0625,-2.74219 -1.49218,-4.14844 -0.4336,-1.40625 -0.79297,-2.83203 -1.08204,-4.27734 -0.28906,-1.44141 -0.50781,-2.89453 -0.65625,-4.35938 -0.14453,-1.46484 -0.21875,-2.93359 -0.22265,-4.40625"
             fill-opacity="1"
             fill-rule="nonzero"
             id="path11"
             style="fill:#383838;fill-opacity:1" /></g></g></g></g></svg>
