<?xml version="1.0" encoding="UTF-8" standalone="no"?>
<!-- Created with Inkscape (http://www.inkscape.org/) -->

<svg
   width="75mm"
   height="72mm"
   viewBox="0 0 75 72"
   version="1.1"
   id="svg1"
   xml:space="preserve"
   inkscape:version="1.4 (86a8ad7, 2024-10-11)"
   sodipodi:docname="subir.svg"
   xmlns:inkscape="http://www.inkscape.org/namespaces/inkscape"
   xmlns:sodipodi="http://sodipodi.sourceforge.net/DTD/sodipodi-0.dtd"
   xmlns="http://www.w3.org/2000/svg"
   xmlns:svg="http://www.w3.org/2000/svg"><sodipodi:namedview
     id="namedview1"
     pagecolor="#ffffff"
     bordercolor="#000000"
     borderopacity="0.25"
     inkscape:showpageshadow="2"
     inkscape:pageopacity="0.0"
     inkscape:pagecheckerboard="0"
     inkscape:deskcolor="#d1d1d1"
     inkscape:document-units="mm"
     inkscape:zoom="0.34075125"
     inkscape:cx="807.04033"
     inkscape:cy="685.2506"
     inkscape:window-width="1920"
     inkscape:window-height="1009"
     inkscape:window-x="-8"
     inkscape:window-y="-8"
     inkscape:window-maximized="1"
     inkscape:current-layer="g6" /><defs
     id="defs1"><g
       id="g1" /><clipPath
       id="ef87fc712d"><path
         d="M 0.886719,0 H 1199.1133 V 674 H 0.886719 Z m 0,0"
         clip-rule="nonzero"
         id="path1-8" /></clipPath><clipPath
       id="18b4cb64c8"><path
         d="m 278.73828,273.32422 h 115.91406 v 105.8164 H 278.73828 Z m 0,0"
         clip-rule="nonzero"
         id="path2-8" /></clipPath><clipPath
       id="21e6d15f27"><path
         d="M 252.52734,239.84766 H 389 V 376 H 252.52734 Z m 0,0"
         clip-rule="nonzero"
         id="path3-2" /></clipPath><clipPath
       id="1e7e377b1f"><rect
         x="0"
         width="149"
         y="0"
         height="71"
         id="rect3-4" /></clipPath><clipPath
       id="5b316fbd7f"><path
         d="m 526.5,272.76562 h 147 v 88.44141 h -147 z m 0,0"
         clip-rule="nonzero"
         id="path4" /></clipPath><clipPath
       id="9cbf4c9d92"><path
         d="m 565,257.85937 h 71 V 276 h -71 z m 0,0"
         clip-rule="nonzero"
         id="path5" /></clipPath><clipPath
       id="ecbe230171"><path
         d="m 526.5,288.01172 h 147 v 57.25 h -147 z m 0,0"
         clip-rule="nonzero"
         id="path6" /></clipPath><clipPath
       id="a4ed547ce6"><rect
         x="0"
         width="204"
         y="0"
         height="71"
         id="rect6-5" /></clipPath><clipPath
       id="292461c61b"><path
         d="m 833,360 h 87 v 18.84766 h -87 z m 0,0"
         clip-rule="nonzero"
         id="path7-5" /></clipPath><clipPath
       id="6a2185c9d5"><path
         d="M 821.36719,240.30469 H 931.45312 V 355 H 821.36719 Z m 0,0"
         clip-rule="nonzero"
         id="path8-1" /></clipPath><clipPath
       id="f51ef1861f"><rect
         x="0"
         width="159"
         y="0"
         height="71"
         id="rect8-7" /></clipPath></defs><g
     inkscape:label="Capa 1"
     inkscape:groupmode="layer"
     id="layer1"><g
       id="g5"
       transform="translate(-10.094118,-30.670589)"><g
         id="g6"
         transform="matrix(1.111861,0,0,1.111861,-2.3706689,-7.2777547)"><g
           id="g8"
           transform="translate(-238.2655,-145.50609)"
           style="fill:#ffffff"><g
             clip-path="url(#292461c61b)"
             id="g207"
             transform="matrix(0.45205111,0,0,0.45205111,-112.97518,72.073112)"
             style="fill:#ffffff"><path
               fill="#ffffff"
               d="m 917.84375,362.34766 v -1.49219 h -82.87891 c -0.39062,0 -0.77734,0.16015 -1.05078,0.43359 -0.28125,0.28125 -0.4414,0.66406 -0.4414,1.0586 v 14.90625 c 0,0.39062 0.16015,0.78125 0.4414,1.05468 0.27344,0.28125 0.66016,0.4375 1.05078,0.4375 h 82.87891 c 0.38672,0 0.77344,-0.15625 1.05078,-0.4375 0.27734,-0.27343 0.44141,-0.66406 0.44141,-1.05468 v -14.90625 c 0,-0.39454 -0.16407,-0.77735 -0.44141,-1.0586 -0.27734,-0.27344 -0.66406,-0.43359 -1.05078,-0.43359 v 1.49219 h -1.5 v 13.41406 h -79.88672 v -11.92188 h 81.38672 v -1.49218 h -1.5 1.5"
               fill-opacity="1"
               fill-rule="nonzero"
               id="path207"
               style="fill:#ffffff" /></g><g
             clip-path="url(#6a2185c9d5)"
             id="g209"
             transform="matrix(0.45205111,0,0,0.45205111,-112.97518,72.073112)"
             style="fill:#ffffff"><path
               fill="#ffffff"
               d="m 858.57812,319.99219 h -1.49218 v 32.73047 c 0,0.39453 0.16015,0.77734 0.4375,1.05859 0.27734,0.27344 0.66015,0.43359 1.05468,0.43359 h 35.64844 c 0.39453,0 0.77735,-0.16015 1.0586,-0.43359 0.27343,-0.28125 0.43359,-0.66406 0.43359,-1.05859 V 321.48437 H 929.875 c 0.55859,0 1.0625,-0.30859 1.32031,-0.79687 0.25781,-0.49219 0.22656,-1.08203 -0.0898,-1.54297 l -53.47266,-78.10156 c -0.27344,-0.40625 -0.73437,-0.64844 -1.23047,-0.64844 -0.49609,0 -0.95312,0.24219 -1.23047,0.64844 l -53.47265,78.10547 c -0.31641,0.45703 -0.34766,1.05078 -0.0898,1.53906 0.25782,0.48828 0.76563,0.80078 1.32032,0.80078 h 35.64843 v -1.49219 h -1.49218 1.49218 v -1.49218 H 825.7579 l 50.64453,-73.97266 50.64453,73.96484 -32.82031,0.008 c -0.39453,0 -0.77344,0.15234 -1.05469,0.43359 -0.27734,0.27344 -0.4375,0.66406 -0.4375,1.05859 v 31.23438 H 860.0704 v -31.23438 c 0,-0.39453 -0.16015,-0.78515 -0.43359,-1.05859 -0.28125,-0.28125 -0.66406,-0.43359 -1.0586,-0.43359 v 1.49218"
               fill-opacity="1"
               fill-rule="nonzero"
               id="path209"
               style="fill:#ffffff" /></g></g></g></g></g></svg>
