<?xml version="1.0" encoding="UTF-8" standalone="no"?>
<!-- Created with Inkscape (http://www.inkscape.org/) -->

<svg
   width="72mm"
   height="72mm"
   viewBox="0 0 72 72"
   version="1.1"
   id="svg1"
   xml:space="preserve"
   inkscape:version="1.4 (86a8ad7, 2024-10-11)"
   sodipodi:docname="threads.svg"
   xmlns:inkscape="http://www.inkscape.org/namespaces/inkscape"
   xmlns:sodipodi="http://sodipodi.sourceforge.net/DTD/sodipodi-0.dtd"
   xmlns="http://www.w3.org/2000/svg"
   xmlns:svg="http://www.w3.org/2000/svg"><sodipodi:namedview
     id="namedview1"
     pagecolor="#ffffff"
     bordercolor="#000000"
     borderopacity="0.25"
     inkscape:showpageshadow="2"
     inkscape:pageopacity="0.0"
     inkscape:pagecheckerboard="0"
     inkscape:deskcolor="#d1d1d1"
     inkscape:document-units="mm"
     inkscape:zoom="0.24094752"
     inkscape:cx="186.76266"
     inkscape:cy="624.61734"
     inkscape:window-width="1920"
     inkscape:window-height="1009"
     inkscape:window-x="-8"
     inkscape:window-y="-8"
     inkscape:window-maximized="1"
     inkscape:current-layer="g6" /><defs
     id="defs1"><g
       id="g1" /><clipPath
       id="ef87fc712d"><path
         d="M 0.886719,0 H 1199.1133 V 674 H 0.886719 Z m 0,0"
         clip-rule="nonzero"
         id="path1-8" /></clipPath><clipPath
       id="18b4cb64c8"><path
         d="m 278.73828,273.32422 h 115.91406 v 105.8164 H 278.73828 Z m 0,0"
         clip-rule="nonzero"
         id="path2-8" /></clipPath><clipPath
       id="1e7e377b1f"><rect
         x="0"
         width="149"
         y="0"
         height="71"
         id="rect3-4" /></clipPath><clipPath
       id="5b316fbd7f"><path
         d="m 526.5,272.76562 h 147 v 88.44141 h -147 z m 0,0"
         clip-rule="nonzero"
         id="path4" /></clipPath><clipPath
       id="9cbf4c9d92"><path
         d="m 565,257.85937 h 71 V 276 h -71 z m 0,0"
         clip-rule="nonzero"
         id="path5" /></clipPath><clipPath
       id="ecbe230171"><path
         d="m 526.5,288.01172 h 147 v 57.25 h -147 z m 0,0"
         clip-rule="nonzero"
         id="path6" /></clipPath><clipPath
       id="a4ed547ce6"><rect
         x="0"
         width="204"
         y="0"
         height="71"
         id="rect6-5" /></clipPath><clipPath
       id="292461c61b"><path
         d="m 833,360 h 87 v 18.84766 h -87 z m 0,0"
         clip-rule="nonzero"
         id="path7-5" /></clipPath><clipPath
       id="6a2185c9d5"><path
         d="M 821.36719,240.30469 H 931.45312 V 355 H 821.36719 Z m 0,0"
         clip-rule="nonzero"
         id="path8-1" /></clipPath><clipPath
       id="f51ef1861f"><rect
         x="0"
         width="159"
         y="0"
         height="71"
         id="rect8-7" /></clipPath><clipPath
       clipPathUnits="userSpaceOnUse"
       id="clipPath8"><path
         d="M 12.765999,35.826543 H 74.458614 V 97.374356 H 12.765999 Z m 0,0"
         clip-rule="nonzero"
         id="path8"
         style="stroke-width:0.452051" /></clipPath><clipPath
       id="cc6cdf5ae1"><path
         d="M 0.886719 0 L 1199.113281 0 L 1199.113281 674 L 0.886719 674 Z M 0.886719 0 "
         clip-rule="nonzero"
         id="path1" /></clipPath><clipPath
       id="911b4be70f"><path
         d="M 512.378906 205.394531 L 810.4375 205.394531 L 810.4375 474.992188 L 512.378906 474.992188 Z M 512.378906 205.394531 "
         clip-rule="nonzero"
         id="path2" /></clipPath><clipPath
       id="42a5dc3af8"><path
         d="M 821.652344 205.394531 L 1056.804688 205.394531 L 1056.804688 474.992188 L 821.652344 474.992188 Z M 821.652344 205.394531 "
         clip-rule="nonzero"
         id="path3" /></clipPath><clipPath
       id="01ea427a7e"><path
         d="M 231.863281 205.394531 L 501.464844 205.394531 L 501.464844 474.992188 L 231.863281 474.992188 Z M 231.863281 205.394531 "
         clip-rule="nonzero"
         id="path4-7" /></clipPath><clipPath
       id="828d35b8fe"><path
         d="M 1 206 L 221.0625 206 L 221.0625 474.992188 L 1 474.992188 Z M 1 206 "
         clip-rule="nonzero"
         id="path5-6" /></clipPath><clipPath
       id="2b6e8c0a99"><path
         d="M 1068.019531 205.394531 L 1195.332031 205.394531 L 1195.332031 474.992188 L 1068.019531 474.992188 Z M 1068.019531 205.394531 "
         clip-rule="nonzero"
         id="path6-1" /></clipPath><clipPath
       id="5fa7a2c30f"><path
         d="M 0.886719 0 L 1199.113281 0 L 1199.113281 674 L 0.886719 674 Z M 0.886719 0 "
         clip-rule="nonzero"
         id="path1-6" /></clipPath><clipPath
       id="9b47bb9012"><path
         d="M 261.050781 203 L 438.535156 203 L 438.535156 471 L 261.050781 471 Z M 261.050781 203 "
         clip-rule="nonzero"
         id="path2-85" /></clipPath></defs><g
     inkscape:label="Capa 1"
     inkscape:groupmode="layer"
     id="layer1"><g
       id="g5"
       transform="translate(-10.094118,-30.670589)"><g
         id="g6"
         transform="matrix(1.111861,0,0,1.111861,-2.3706689,-7.2777547)"><path
           fill="#ffffff"
           d="m 71.682736,62.266234 h -9.201708 l 1.273156,-13.814049 9.542519,-0.05121 z m -1.513309,12.856966 -8.88563,0.0141 1.096577,-11.836321 h 9.175222 z m -39.037085,-26.49443 1.1213,13.6251 H 23.505748 L 22.094851,48.678211 Z m 17.066697,13.637464 0.06357,-13.725754 14.444447,-0.0883 -1.273161,13.814049 z m 0,1.034772 h 13.134199 l -1.096576,11.83632 -12.101195,0.02473 z M 33.313136,62.266234 32.17771,48.62877 47.21547,48.54048 47.15367,62.266234 Z m 0.01234,12.920538 -8.483019,0.01234 -1.236079,-11.898125 h 8.735535 z m 0.06357,-11.885766 h 13.764603 l -0.05121,11.861043 -12.731594,0.02473 z m 9.351807,27.364985 c 0,3.024855 -2.458028,5.482882 -5.482887,5.482882 -3.024859,0 -5.482887,-2.458027 -5.482887,-5.482882 0,-3.024859 2.458028,-5.482887 5.482887,-5.482887 3.024859,0 5.482887,2.458028 5.482887,5.482887 z m 22.676718,0 c 0,3.024855 -2.458028,5.482882 -5.482887,5.482882 -3.024855,0 -5.482882,-2.458027 -5.482882,-5.482882 0,-3.024859 2.458027,-5.482887 5.482882,-5.482887 3.024877,-0.01236 5.482905,2.458028 5.482905,5.482887 z m 8.86091,-43.147924 C 74.177832,47.405054 74.027732,47.367973 73.888234,47.34325 L 21.992416,47.645206 20.819909,36.299782 c -0.02473,-0.263107 -0.250748,-0.466178 -0.515623,-0.466178 h -7.020919 c -0.289593,0 -0.517386,0.227793 -0.517386,0.517386 0,0.289598 0.227793,0.517386 0.517386,0.517386 h 6.542382 l 1.172507,11.343657 0.969438,9.429506 2.798833,27.063028 c 0.02473,0.264871 0.252511,0.466178 0.517386,0.466178 h 8.431811 c -1.802906,1.158381 -3.000137,3.189076 -3.000137,5.482882 0,3.605813 2.924206,6.530019 6.530023,6.530019 3.591686,0 6.530018,-2.925969 6.530018,-6.530019 0,-2.293806 -1.198993,-4.324501 -3.000136,-5.482882 h 15.629314 c -1.802907,1.158381 -3.000137,3.189076 -3.000137,5.482882 0,3.605813 2.924205,6.530019 6.530018,6.530019 3.60405,0 6.530023,-2.925969 6.530023,-6.517655 0,-2.293807 -1.198998,-4.322739 -3.000137,-5.482887 h 5.885493 c 0.289593,0 0.517386,-0.227793 0.517386,-0.517386 0,-0.289598 -0.227793,-0.515623 -0.517386,-0.515623 H 25.774814 l -0.819343,-7.89147 45.680115,-0.07593 c 0.264875,0 0.492664,-0.201302 0.517386,-0.466177 L 74.40562,47.92244 c 0.02473,-0.137735 -0.02649,-0.289597 -0.127139,-0.404373"
           fill-opacity="1"
           fill-rule="nonzero"
           id="path12"
           style="fill:#ffffff;stroke-width:0.452051"
           clip-path="url(#clipPath8)"
           sodipodi:nodetypes="ccccccccccccccccccccccccccccccccccccccccssssscsscccccccssssccccscsssccssscssscccccc" /><g
           clip-path="url(#828d35b8fe)"
           id="g12"
           transform="matrix(0.21821021,0,0,0.21821021,19.354771,-7.7749062)"
           style="fill:#383838;fill-opacity:1"><path
             fill="#000000"
             d="m 220.99219,307.78125 -1.60547,-7.13281 c -12.89453,-57.33985 -54.91016,-94.38672 -107.02344,-94.38672 -32.605468,0 -61.871092,14.44531 -82.390624,40.67578 -18.917968,24.14453 -28.917968,56.46875 -28.917968,93.48047 0,78.99219 45.769531,134.16015 111.312502,134.16406 62.28125,0 105.77343,-29.92969 105.77343,-72.78125 0,-25.78906 -16.46875,-47.57031 -45.32812,-60.14844 0.0352,-1.21875 0.0547,-2.45312 0.0547,-3.69531 0,-14.38281 -2.39063,-27.19531 -7.09766,-38.08594 -9.85156,-22.9414 -29.32422,-36.09765 -53.44531,-36.09765 -24.089845,0 -43.546876,13.15234 -53.398439,36.09765 l -2.882812,6.71485 c -0.46875,1.09765 -0.488281,2.33984 -0.04687,3.44922 0.445312,1.11328 1.308594,1.99609 2.410156,2.46875 l 13.425781,5.76953 c 2.296875,0.97656 4.945313,-0.0781 5.921875,-2.36328 l 2.886719,-6.71485 c 6.117187,-14.2539 17.078125,-21.78906 31.67578,-21.78906 14.63672,0 25.60937,7.53906 31.73828,21.8125 3.02734,7.00391 4.73437,15.35937 5.09765,24.87891 -11.46484,-2.52344 -23.82031,-3.79297 -36.83203,-3.79297 -35.597649,0 -60.453117,17.83984 -60.453117,43.375 0,12.71093 6.46875,24.10547 18.207031,32.08984 10.859375,7.38672 25.464843,11.28906 42.246086,11.28906 27.54688,0 49.04688,-19.33203 57.13672,-50.8789 16.20313,8.71875 25.04297,21.22265 25.04297,35.62109 0,12.71484 -7.10938,24.55078 -20.01953,33.33203 -15.21094,10.33985 -36.6875,15.8086 -62.11328,15.8086 -51.617185,0 -87.671873,-45.44922 -87.671873,-110.52344 0,-31.67188 8.261719,-58.96094 23.902344,-78.91406 15.933594,-20.38672 38.589844,-31.60938 63.773429,-31.60938 41.25391,0 73.42578,29.09766 83.96094,75.94141 l 1.60547,7.1289 c 0.54687,2.42969 2.94141,3.96094 5.39062,3.41016 l 14.26172,-3.20703 c 1.16797,-0.26172 2.17578,-0.97656 2.81641,-1.98828 0.64062,-1.01172 0.85547,-2.23047 0.58594,-3.39844 z M 112.3125,393.42187 c -11.83594,0 -22.117188,-2.55859 -28.941406,-7.19921 -5.21875,-3.55469 -7.867188,-7.77735 -7.867188,-12.54297 0,-11.25391 15.851563,-19.73828 36.863284,-19.73828 12.52344,0 24.19922,1.3125 34.76953,3.90625 -4.9375,22.05468 -18.03906,35.57421 -34.82422,35.57421 z m 0,0"
             fill-opacity="1"
             fill-rule="nonzero"
             id="path12-2"
             style="fill:#383838;fill-opacity:1" /></g></g></g></g></svg>
